<svg width="40" height="40" viewBox="0 0 40 40" fill="none" xmlns="http://www.w3.org/2000/svg">
<path d="M35.4665 10.6663L19.5665 26.5663C17.9832 28.1496 13.2831 28.8829 12.2331 27.8329C11.1831 26.7829 11.8998 22.0829 13.4831 20.4996L29.3998 4.58296C29.7923 4.15473 30.2675 3.81049 30.7968 3.57099C31.326 3.33149 31.8983 3.20166 32.4792 3.18943C33.0598 3.17721 33.6372 3.28278 34.176 3.49979C34.7148 3.71681 35.2042 4.04081 35.6143 4.45214C36.0245 4.86348 36.3472 5.35364 36.5627 5.89308C36.7782 6.43253 36.8823 7.01003 36.8685 7.59078C36.8547 8.17153 36.7232 8.74351 36.4823 9.27209C36.2413 9.80068 35.8958 10.275 35.4665 10.6663Z" stroke="#E3A74F" stroke-width="2" stroke-linecap="round" stroke-linejoin="round"/>
<path d="M18.334 6.66699H10.0007C8.23253 6.66699 6.53695 7.36936 5.2867 8.61961C4.03647 9.86986 3.33398 11.5655 3.33398 13.3337V30.0003C3.33398 31.7685 4.03647 33.4642 5.2867 34.7143C6.53695 35.9647 8.23253 36.667 10.0007 36.667H28.334C32.0173 36.667 33.334 33.667 33.334 30.0003V21.667" stroke="#E3A74F" stroke-width="2" stroke-linecap="round" stroke-linejoin="round"/>
</svg>
