<svg width="47" height="38" viewBox="0 0 47 38" fill="none" xmlns="http://www.w3.org/2000/svg">
<path d="M15.8402 35.4002C15.8402 36.3943 16.6461 37.2002 17.6402 37.2002C18.6343 37.2002 19.4402 36.3943 19.4402 35.4002H15.8402ZM17.6402 30.0458L15.8415 29.977C15.8406 30 15.8402 30.0228 15.8402 30.0458H17.6402ZM23.4002 24.6938L23.3368 26.4926C23.3791 26.4941 23.4213 26.4941 23.4635 26.4926L23.4002 24.6938ZM29.1602 30.0458H30.9602C30.9602 30.0228 30.9597 30 30.959 29.977L29.1602 30.0458ZM27.3602 35.4002C27.3602 36.3943 28.1661 37.2002 29.1602 37.2002C30.1543 37.2002 30.9602 36.3943 30.9602 35.4002H27.3602ZM17.6402 33.6002C16.6461 33.6002 15.8402 34.4062 15.8402 35.4002C15.8402 36.3943 16.6461 37.2002 17.6402 37.2002V33.6002ZM29.1602 37.2002C30.1543 37.2002 30.9602 36.3943 30.9602 35.4002C30.9602 34.4062 30.1543 33.6002 29.1602 33.6002V37.2002ZM17.6402 37.2002C18.6343 37.2002 19.4402 36.3943 19.4402 35.4002C19.4402 34.4062 18.6343 33.6002 17.6402 33.6002V37.2002ZM16.2002 35.4002V33.6002C16.1791 33.6002 16.1579 33.6005 16.1368 33.6012L16.2002 35.4002ZM7.56019 27.3698H5.76019C5.76019 27.3924 5.76062 27.4152 5.76148 27.438L7.56019 27.3698ZM9.36019 11.2754C9.36019 10.2813 8.55429 9.47536 7.56019 9.47536C6.56608 9.47536 5.76019 10.2813 5.76019 11.2754H9.36019ZM0.789304 13.6956C-0.0332477 14.2538 -0.247448 15.3732 0.310841 16.1959C0.869153 17.0184 1.98854 17.2325 2.81106 16.6742L0.789304 13.6956ZM8.57107 12.7647C9.39362 12.2064 9.60782 11.087 9.04953 10.2645C8.49122 9.44195 7.37183 9.22773 6.5493 9.78604L8.57107 12.7647ZM6.5493 9.78604C5.72673 10.3443 5.51255 11.4636 6.07079 12.2862C6.62906 13.1087 7.74851 13.3229 8.57107 12.7647L6.5493 9.78604ZM20.0786 2.77936L19.102 1.26729C19.0905 1.27473 19.079 1.28229 19.0677 1.28999L20.0786 2.77936ZM26.7218 2.77936L27.7327 1.28999C27.7214 1.28229 27.7099 1.27473 27.6984 1.26729L26.7218 2.77936ZM38.2293 12.7648C39.052 13.323 40.1714 13.1087 40.7296 12.2862C41.2879 11.4636 41.0735 10.3442 40.2511 9.786L38.2293 12.7648ZM29.1602 33.6002C28.1661 33.6002 27.3602 34.4062 27.3602 35.4002C27.3602 36.3943 28.1661 37.2002 29.1602 37.2002V33.6002ZM30.6002 35.4002L30.6635 33.6012C30.6424 33.6005 30.6213 33.6002 30.6002 33.6002V35.4002ZM39.2402 27.3698L41.039 27.438C41.0397 27.4152 41.0402 27.3924 41.0402 27.3698H39.2402ZM41.0402 11.2754C41.0402 10.2813 40.2343 9.47536 39.2402 9.47536C38.2461 9.47536 37.4402 10.2813 37.4402 11.2754H41.0402ZM43.9898 16.6721C44.8125 17.2303 45.9319 17.0158 46.4899 16.193C47.0479 15.3703 46.8333 14.251 46.0106 13.693L43.9898 16.6721ZM40.2511 9.786C39.4283 9.22792 38.3088 9.44222 37.7505 10.2649C37.1925 11.0876 37.4066 12.2067 38.2293 12.7648L40.2511 9.786ZM19.4402 35.4002V30.0458H15.8402V35.4002H19.4402ZM19.439 30.1145C19.5182 28.0394 21.2615 26.4194 23.3368 26.4926L23.4635 22.8948C19.4054 22.752 15.9965 25.9193 15.8415 29.977L19.439 30.1145ZM23.4635 26.4926C25.5388 26.4194 27.2822 28.0394 27.3614 30.1145L30.959 29.977C30.8039 25.9193 27.395 22.752 23.3368 22.8948L23.4635 26.4926ZM27.3602 30.0458V35.4002H30.9602V30.0458H27.3602ZM17.6402 37.2002H29.1602V33.6002H17.6402V37.2002ZM17.6402 33.6002H16.2002V37.2002H17.6402V33.6002ZM16.1368 33.6012C12.5274 33.7284 9.49574 30.9106 9.35889 27.3017L5.76148 27.438C5.9735 33.03 10.6709 37.3961 16.2635 37.199L16.1368 33.6012ZM9.36019 27.3698V11.2754H5.76019V27.3698H9.36019ZM2.81106 16.6742L8.57107 12.7647L6.5493 9.78604L0.789304 13.6956L2.81106 16.6742ZM8.57107 12.7647L21.0895 4.26875L19.0677 1.28999L6.5493 9.78604L8.57107 12.7647ZM21.0551 4.29143C22.4827 3.36952 24.3177 3.36952 25.7452 4.29143L27.6984 1.26729C25.0821 -0.42243 21.7183 -0.42243 19.102 1.26729L21.0551 4.29143ZM25.7109 4.26875L38.2293 12.7648L40.2511 9.786L27.7327 1.28999L25.7109 4.26875ZM29.1602 37.2002H30.6002V33.6002H29.1602V37.2002ZM30.5368 37.199C36.1296 37.3961 40.8268 33.03 41.039 27.438L37.4414 27.3017C37.3046 30.9106 34.2729 33.7284 30.6635 33.6012L30.5368 37.199ZM41.0402 27.3698V11.2754H37.4402V27.3698H41.0402ZM46.0106 13.693L40.2511 9.786L38.2293 12.7648L43.9898 16.6721L46.0106 13.693Z" fill="white"/>
</svg>
