<svg width="16" height="16" viewBox="0 0 16 16" fill="none" xmlns="http://www.w3.org/2000/svg">
<path fill-rule="evenodd" clip-rule="evenodd" d="M8 16C12.4183 16 16 12.4183 16 8C16 3.58172 12.4183 0 8 0C3.58172 0 0 3.58172 0 8C0 12.4183 3.58172 16 8 16ZM8 14.5405C4.38779 14.5405 1.45951 11.6122 1.45951 8C1.45951 4.63361 4.00279 1.86124 7.27273 1.49949V7.69876C7.27273 8.08451 7.42596 8.45447 7.69876 8.72727L12.082 13.1105C10.9632 14.0054 9.54407 14.5405 8 14.5405ZM13.1105 12.082L10.0041 8.97556C9.91244 8.88393 9.97738 8.72727 10.107 8.72727H14.5005C14.361 9.98836 13.863 11.1413 13.1105 12.082ZM14.5005 7.27273H9.09091C8.89011 7.27273 8.72727 7.10989 8.72727 6.90909V1.49949C11.7584 1.83483 14.1652 4.24157 14.5005 7.27273Z" fill="white"/>
</svg>
