<svg width="19" height="17" viewBox="0 0 19 17" fill="none" xmlns="http://www.w3.org/2000/svg">
<path d="M6.95 7.5625C7.88888 7.5625 8.65 6.72303 8.65 5.6875C8.65 4.65197 7.88888 3.8125 6.95 3.8125C6.01112 3.8125 5.25 4.65197 5.25 5.6875C5.25 6.72303 6.01112 7.5625 6.95 7.5625Z" stroke="white"/>
<path d="M10.3508 11.3125C10.3508 12.3481 10.3508 13.1875 6.95078 13.1875C3.55078 13.1875 3.55078 12.3481 3.55078 11.3125C3.55078 10.2769 5.07301 9.4375 6.95078 9.4375C8.82852 9.4375 10.3508 10.2769 10.3508 11.3125Z" stroke="white"/>
<path d="M1 8.5C1 4.96446 1 3.1967 1.99583 2.09835C2.99168 1 4.59445 1 7.8 1H11.2C14.4055 1 16.0084 1 17.0041 2.09835C18 3.1967 18 4.96446 18 8.5C18 12.0355 18 13.8033 17.0041 14.9016C16.0084 16 14.4055 16 11.2 16H7.8C4.59445 16 2.99168 16 1.99583 14.9016C1 13.8033 1 12.0355 1 8.5Z" stroke="white"/>
<path d="M15.4508 8.5H12.0508" stroke="white" stroke-linecap="round"/>
<path d="M15.4492 5.6875H11.1992" stroke="white" stroke-linecap="round"/>
<path opacity="0.9" d="M15.4484 11.3125H12.8984" stroke="white" stroke-linecap="round"/>
</svg>
