<svg width="18" height="18" viewBox="0 0 18 18" fill="none" xmlns="http://www.w3.org/2000/svg">
<path d="M5.79918 8.11122C6.68281 8.11122 7.39913 7.31531 7.39913 6.33344C7.39913 5.3516 6.68281 4.55566 5.79918 4.55566C4.91554 4.55566 4.19922 5.3516 4.19922 6.33344C4.19922 7.31531 4.91554 8.11122 5.79918 8.11122Z" stroke="white" stroke-width="1.5" stroke-linecap="round" stroke-linejoin="round"/>
<path d="M4.64844 17C9.10428 6.24442 12.8082 4.35998 17.0001 11.3378" stroke="white" stroke-width="1.5" stroke-linecap="round" stroke-linejoin="round"/>
<path d="M13.7997 1H4.19991C2.43265 1 1 2.59187 1 4.55555V13.4444C1 15.4081 2.43265 17 4.19991 17H13.7997C15.5669 17 16.9996 15.4081 16.9996 13.4444V4.55555C16.9996 2.59187 15.5669 1 13.7997 1Z" stroke="white" stroke-width="1.5" stroke-linecap="round" stroke-linejoin="round"/>
</svg>
