<svg width="38" height="33" viewBox="0 0 38 33" fill="none" xmlns="http://www.w3.org/2000/svg">
<path d="M7.17906 8.89973C7.02694 7.91732 6.10722 7.24424 5.12482 7.39635C4.14241 7.54849 3.46933 8.46819 3.62144 9.45058L7.17906 8.89973ZM8.16025 27H9.96025C9.96025 26.9078 9.95317 26.8157 9.93905 26.7245L8.16025 27ZM13.8002 32.4C14.7943 32.4 15.6002 31.5941 15.6002 30.6C15.6002 29.6059 14.7943 28.8 13.8002 28.8V32.4ZM4.45376 7.6441C3.60817 8.16682 3.34645 9.27608 3.86919 10.1216C4.39191 10.9672 5.50114 11.229 6.34674 10.7062L4.45376 7.6441ZM16.589 2.25836L15.809 0.636102C15.7519 0.663558 15.6965 0.69399 15.6425 0.727302L16.589 2.25836ZM20.6114 2.25836L21.558 0.727302C21.504 0.69399 21.4486 0.663558 21.3914 0.636102L20.6114 2.25836ZM30.8537 10.7062C31.6994 11.229 32.8085 10.9672 33.3312 10.1216C33.8539 9.27608 33.5923 8.16682 32.7468 7.6441L30.8537 10.7062ZM6.34674 10.7062C7.1924 10.1836 7.45405 9.07455 6.93145 8.22889C6.40882 7.38322 5.2994 7.1215 4.45376 7.6441L6.34674 10.7062ZM0.853975 9.86876C0.00831099 10.3914 -0.253553 11.5006 0.269047 12.3463C0.791671 13.1918 1.90088 13.4537 2.74652 12.9312L0.853975 9.86876ZM33.5791 9.45058C33.731 8.46819 33.0581 7.54849 32.0758 7.39635C31.0932 7.24424 30.1735 7.91732 30.0214 8.89973L33.5791 9.45058ZM29.0402 27L27.2614 26.7245C27.2475 26.8157 27.2402 26.9078 27.2402 27H29.0402ZM23.4002 28.8C22.4062 28.8 21.6002 29.6059 21.6002 30.6C21.6002 31.5941 22.4062 32.4 23.4002 32.4V28.8ZM32.7468 7.6441C31.901 7.1215 30.7918 7.38322 30.269 8.22889C29.7463 9.07455 30.0082 10.1836 30.8537 10.7062L32.7468 7.6441ZM34.4539 12.9312C35.2997 13.4537 36.4087 13.1918 36.9314 12.3463C37.4542 11.5006 37.1921 10.3914 36.3466 9.86876L34.4539 12.9312ZM12.0002 30.6C12.0002 31.5941 12.8062 32.4 13.8002 32.4C14.7943 32.4 15.6002 31.5941 15.6002 30.6H12.0002ZM21.6002 30.6C21.6002 31.5941 22.4062 32.4 23.4002 32.4C24.3943 32.4 25.2002 31.5941 25.2002 30.6H21.6002ZM13.8002 28.8C12.8062 28.8 12.0002 29.6059 12.0002 30.6C12.0002 31.5941 12.8062 32.4 13.8002 32.4V28.8ZM23.4002 32.4C24.3943 32.4 25.2002 31.5941 25.2002 30.6C25.2002 29.6059 24.3943 28.8 23.4002 28.8V32.4ZM3.62144 9.45058L6.38144 27.2753L9.93905 26.7245L7.17906 8.89973L3.62144 9.45058ZM6.36025 27C6.36025 29.0976 7.13902 30.667 8.64063 31.5583C9.93629 32.3275 11.4929 32.4 12.6002 32.4V28.8C11.5188 28.8 10.8554 28.6865 10.4783 28.4626C10.3354 28.3778 10.2354 28.277 10.1551 28.117C10.0657 27.9389 9.96025 27.6026 9.96025 27H6.36025ZM12.6002 32.4H13.8002V28.8H12.6002V32.4ZM6.34674 10.7062L17.5356 3.78944L15.6425 0.727302L4.45376 7.6441L6.34674 10.7062ZM17.369 3.88061C18.1471 3.50648 19.0534 3.50648 19.8314 3.88061L21.3914 0.636102C19.6272 -0.212034 17.5733 -0.212034 15.809 0.636102L17.369 3.88061ZM19.6649 3.78944L30.8537 10.7062L32.7468 7.6441L21.558 0.727302L19.6649 3.78944ZM4.45376 7.6441L0.853975 9.86876L2.74652 12.9312L6.34674 10.7062L4.45376 7.6441ZM30.0214 8.89973L27.2614 26.7245L30.8191 27.2753L33.5791 9.45058L30.0214 8.89973ZM27.2402 27C27.2402 27.6026 27.1349 27.9389 27.0454 28.117C26.9652 28.277 26.8651 28.3778 26.7223 28.4626C26.345 28.6865 25.6817 28.8 24.6002 28.8V32.4C25.7076 32.4 27.2642 32.3275 28.5598 31.5583C30.0614 30.667 30.8402 29.0976 30.8402 27H27.2402ZM24.6002 28.8H23.4002V32.4H24.6002V28.8ZM30.8537 10.7062L34.4539 12.9312L36.3466 9.86876L32.7468 7.6441L30.8537 10.7062ZM15.6002 30.6V23.4H12.0002V30.6H15.6002ZM15.6002 23.4C15.6002 23.0686 15.8688 22.8 16.2002 22.8V19.2C13.8806 19.2 12.0002 21.0804 12.0002 23.4H15.6002ZM16.2002 22.8H21.0002V19.2H16.2002V22.8ZM21.0002 22.8C21.3317 22.8 21.6002 23.0686 21.6002 23.4H25.2002C25.2002 21.0804 23.3198 19.2 21.0002 19.2V22.8ZM21.6002 23.4V30.6H25.2002V23.4H21.6002ZM13.8002 32.4H23.4002V28.8H13.8002V32.4Z" fill="white"/>
</svg>
