<svg width="240" height="83" viewBox="0 0 240 83" fill="none" xmlns="http://www.w3.org/2000/svg">
<path d="M75.9097 70.6211H70.3483V58.108C70.3483 56.2012 69.8716 54.8374 68.9182 54.0164C67.9648 53.169 66.5877 52.7452 64.7869 52.7452H59.6228V70.6211H54.0614V49.9645H64.7869C68.5739 49.9645 71.3679 50.6531 73.1687 52.0302C74.996 53.3808 75.9097 55.4067 75.9097 58.108V70.6211ZM87.8098 64.0666C87.8098 66.5825 89.3326 67.8404 92.3781 67.8404H97.9395V60.2928H92.3781C89.3326 60.2928 87.8098 61.5507 87.8098 64.0666ZM97.9395 57.5121C97.9395 55.6054 97.4363 54.2018 96.43 53.3014C95.4501 52.401 94.1657 51.9507 92.5767 51.9507C91.385 51.9507 90.2198 52.1361 89.081 52.5069C87.9423 52.8512 86.9227 53.3279 86.0222 53.937L84.6319 51.5535C85.2145 51.1563 85.8501 50.812 86.5387 50.5207C87.2537 50.2294 87.982 49.991 88.7235 49.8056C89.465 49.5938 90.1933 49.4349 90.9083 49.329C91.6498 49.223 92.3384 49.1701 92.974 49.1701C94.6689 49.1701 96.1651 49.3687 97.4628 49.7659C98.7605 50.1632 99.8595 50.7325 100.76 51.4741C101.66 52.2156 102.336 53.1027 102.786 54.1356C103.263 55.1419 103.501 56.2674 103.501 57.5121V70.6211H92.3781C88.7765 70.6211 86.1149 70.0782 84.3936 68.9924C82.6987 67.9066 81.8512 66.2647 81.8512 64.0666C81.8512 61.8685 82.6987 60.2266 84.3936 59.1408C86.1149 58.055 88.7765 57.5121 92.3781 57.5121H97.9395ZM126.522 52.7452H121.755C119.955 52.7452 118.577 53.2352 117.624 54.215C116.671 55.1684 116.194 56.5985 116.194 58.5052V70.6211H110.633V58.5052C110.633 55.804 111.48 53.7119 113.175 52.2288C114.896 50.7193 117.359 49.9645 120.564 49.9645H126.522V52.7452ZM142.386 68.6349C143.683 68.6349 144.888 68.4098 146 67.9596C147.139 67.5094 148.251 66.8738 149.337 66.0528L150.926 68.4363C150.423 68.8865 149.827 69.297 149.139 69.6677C148.477 70.0385 147.748 70.3563 146.954 70.6211C146.186 70.8594 145.378 71.0448 144.531 71.1772C143.683 71.3361 142.836 71.4156 141.988 71.4156C140.108 71.4156 138.387 71.164 136.824 70.6608C135.288 70.1841 133.977 69.4823 132.891 68.5554C131.806 67.6021 130.958 66.4368 130.349 65.0597C129.766 63.6826 129.475 62.0936 129.475 60.2928C129.475 58.5185 129.753 56.9427 130.309 55.5656C130.892 54.1621 131.686 52.9968 132.693 52.0699C133.726 51.1165 134.944 50.4015 136.347 49.9248C137.751 49.4216 139.3 49.1701 140.995 49.1701C142.584 49.1701 144.08 49.4084 145.484 49.8851C146.888 50.3618 148.106 51.0636 149.139 51.9905C150.171 52.8909 150.992 53.9899 151.602 55.2876C152.211 56.5852 152.515 58.055 152.515 59.697V62.4776H135.553C135.871 64.6757 136.626 66.2514 137.817 67.2048C139.035 68.1582 140.558 68.6349 142.386 68.6349ZM140.995 51.7521C140.227 51.7521 139.512 51.8978 138.85 52.1891C138.188 52.4804 137.605 52.9439 137.102 53.5794C136.626 54.215 136.228 55.036 135.91 56.0423C135.619 57.0487 135.46 58.2669 135.434 59.697H146.557C146.557 58.3199 146.398 57.1281 146.08 56.1218C145.762 55.1154 145.338 54.2945 144.809 53.6589C144.306 52.9968 143.71 52.5201 143.021 52.2288C142.359 51.911 141.684 51.7521 140.995 51.7521ZM146.557 41.6225L142.346 47.5811H138.572L140.955 41.6225H146.557ZM170.189 52.7452C168.283 52.7452 166.773 53.3411 165.661 54.5328C164.575 55.6981 164.032 57.4856 164.032 59.8956C164.032 62.3055 164.575 64.1063 165.661 65.2981C166.773 66.4633 168.283 67.0459 170.189 67.0459H175.155V52.7452H170.189ZM180.716 70.2239C180.716 71.4685 180.478 72.5941 180.001 73.6004C179.524 74.6332 178.809 75.5204 177.856 76.2619C176.929 77.0034 175.751 77.5728 174.321 77.9701C172.917 78.3673 171.275 78.5659 169.395 78.5659C168.759 78.5659 168.071 78.513 167.329 78.407C166.614 78.3276 165.886 78.1819 165.144 77.9701C164.403 77.7847 163.675 77.5331 162.96 77.2153C162.271 76.924 161.635 76.5797 161.053 76.1825L162.443 73.799C163.344 74.4081 164.363 74.8848 165.502 75.2291C166.641 75.5999 167.806 75.7852 168.998 75.7852C170.984 75.7852 172.507 75.335 173.566 74.4346C174.625 73.5342 175.155 72.1306 175.155 70.2239V69.8266H170.189C168.362 69.8266 166.694 69.5883 165.184 69.1116C163.701 68.6349 162.43 67.9596 161.371 67.0856C160.311 66.2117 159.49 65.1656 158.908 63.9474C158.352 62.7292 158.073 61.3786 158.073 59.8956C158.073 58.4125 158.352 57.0619 158.908 55.8437C159.49 54.6255 160.311 53.5794 161.371 52.7055C162.43 51.8316 163.701 51.1563 165.184 50.6796C166.694 50.2029 168.362 49.9645 170.189 49.9645H180.716V70.2239ZM188.247 49.9645H193.808V62.4776C193.808 64.3844 194.285 65.7615 195.238 66.609C196.192 67.4299 197.569 67.8404 199.369 67.8404H204.534V49.9645H210.095V70.6211H199.369C195.582 70.6211 192.775 69.9458 190.948 68.5952C189.147 67.2181 188.247 65.1789 188.247 62.4776V49.9645ZM222.228 64.0666C222.228 66.5825 223.751 67.8404 226.796 67.8404H232.358V60.2928H226.796C223.751 60.2928 222.228 61.5507 222.228 64.0666ZM232.358 57.5121C232.358 55.6054 231.854 54.2018 230.848 53.3014C229.868 52.401 228.584 51.9507 226.995 51.9507C225.803 51.9507 224.638 52.1361 223.499 52.5069C222.36 52.8512 221.341 53.3279 220.44 53.937L219.05 51.5535C219.633 51.1563 220.268 50.812 220.957 50.5207C221.672 50.2294 222.4 49.991 223.142 49.8056C223.883 49.5938 224.611 49.4349 225.326 49.329C226.068 49.223 226.756 49.1701 227.392 49.1701C229.087 49.1701 230.583 49.3687 231.881 49.7659C233.179 50.1632 234.278 50.7325 235.178 51.4741C236.078 52.2156 236.754 53.1027 237.204 54.1356C237.681 55.1419 237.919 56.2674 237.919 57.5121V70.6211H226.796C223.195 70.6211 220.533 70.0782 218.812 68.9924C217.117 67.9066 216.269 66.2647 216.269 64.0666C216.269 61.8685 217.117 60.2266 218.812 59.1408C220.533 58.055 223.195 57.5121 226.796 57.5121H232.358Z" fill="#2B4EA2"/>
<path fill-rule="evenodd" clip-rule="evenodd" d="M77.2412 41.2063C76.4725 41.1139 75.6901 41.0664 74.8965 41.0664H58.3448C47.6038 41.0664 38.8965 49.7737 38.8965 60.5147C38.8965 69.391 44.8429 76.8784 52.9695 79.2106C48.5335 81.0872 43.6912 82.1195 38.6207 82.1195C17.2911 82.1195 0 63.8518 0 41.3176C0 18.7833 17.2911 0.515625 38.6207 0.515625C59.9152 0.515625 77.1845 18.7232 77.2412 41.2063Z" fill="url(#paint0_linear_921_972)"/>
<path d="M52.8543 17.6398C45.9997 27.7203 33.5264 37.6477 16.3851 47.3117C17.2074 45.3858 17.857 43.9095 18.2946 43.2698C19.8091 41.0429 22.8895 34.7364 22.8895 34.7364C22.8895 34.7364 24.5125 35.9398 24.7332 35.3847C24.95 34.828 34.1334 11.5488 34.1334 11.5488C34.1334 11.5488 29.8035 6.40218 28.2553 10.1755C27.2346 12.6676 18.1156 34.9015 12.0463 49.6977C10.8754 50.3236 9.69014 50.9548 8.48077 51.5808C7.12286 52.2155 7.82472 53.801 9.95105 54.8033C7.95002 59.6866 6.61934 62.9312 6.61934 62.9312C6.61934 62.9312 6.57835 64.5545 7.67852 64.137C9.54312 61.7698 11.2768 58.5866 12.801 55.4036C24.3188 54.3293 54.9339 27.8543 56.5014 25.4111C58.1157 22.9019 53.2028 15.1392 52.8543 17.6398ZM14.5822 52.5918C14.2226 52.951 13.6565 52.9288 13.3216 52.549C12.9843 52.1658 13.0036 51.5638 13.3625 51.2045C13.7222 50.8455 14.2868 50.8658 14.624 51.2492C14.9589 51.6305 14.9413 52.2342 14.5822 52.5918Z" fill="#F4F3EE"/>
<defs>
<linearGradient id="paint0_linear_921_972" x1="0" y1="0.515625" x2="96.3792" y2="5.18159" gradientUnits="userSpaceOnUse">
<stop offset="0.367322" stop-color="#2B4EA2"/>
<stop offset="1" stop-color="#93A9DF"/>
</linearGradient>
</defs>
</svg>
