<svg width="488" height="51" viewBox="0 0 488 51" fill="none" xmlns="http://www.w3.org/2000/svg">
<path d="M0.168 39V3.24H7.368L20.76 21H17.4L30.408 3.24H37.608V39H30.168V11.448L33.144 12.12L19.368 29.88H18.408L5.112 12.12L7.608 11.448V39H0.168ZM56.0453 39.576C53.2613 39.576 50.8453 38.968 48.7973 37.752C46.7493 36.504 45.1653 34.84 44.0453 32.76C42.9253 30.68 42.3652 28.376 42.3652 25.848C42.3652 23.224 42.9413 20.888 44.0933 18.84C45.2773 16.792 46.8613 15.176 48.8453 13.992C50.8293 12.808 53.0693 12.216 55.5653 12.216C57.6453 12.216 59.4853 12.552 61.0853 13.224C62.6853 13.864 64.0293 14.776 65.1173 15.96C66.2373 17.144 67.0853 18.52 67.6613 20.088C68.2373 21.624 68.5253 23.304 68.5253 25.128C68.5253 25.64 68.4933 26.152 68.4293 26.664C68.3973 27.144 68.3173 27.56 68.1893 27.912H48.5573V22.632H64.1093L60.7013 25.128C61.0213 23.752 61.0053 22.536 60.6533 21.48C60.3013 20.392 59.6773 19.544 58.7813 18.936C57.9173 18.296 56.8453 17.976 55.5653 17.976C54.3173 17.976 53.2453 18.28 52.3493 18.888C51.4533 19.496 50.7813 20.392 50.3333 21.576C49.8853 22.76 49.7093 24.2 49.8053 25.896C49.6773 27.368 49.8533 28.664 50.3333 29.784C50.8133 30.904 51.5493 31.784 52.5413 32.424C53.5333 33.032 54.7333 33.336 56.1413 33.336C57.4213 33.336 58.5093 33.08 59.4053 32.568C60.3333 32.056 61.0533 31.352 61.5653 30.456L67.3253 33.192C66.8133 34.472 65.9973 35.592 64.8773 36.552C63.7893 37.512 62.4933 38.264 60.9893 38.808C59.4853 39.32 57.8373 39.576 56.0453 39.576ZM72.765 39V2.664H79.965V39H72.765ZM85.2338 39V2.664H92.4338V17.976L91.5698 16.824C92.1778 15.256 93.1538 14.104 94.4978 13.368C95.8738 12.6 97.4738 12.216 99.2978 12.216C101.282 12.216 103.01 12.632 104.482 13.464C105.986 14.296 107.154 15.464 107.986 16.968C108.818 18.44 109.234 20.168 109.234 22.152V39H102.034V23.688C102.034 22.664 101.826 21.784 101.41 21.048C101.026 20.312 100.466 19.736 99.7298 19.32C99.0258 18.904 98.1938 18.696 97.2338 18.696C96.3058 18.696 95.4738 18.904 94.7378 19.32C94.0018 19.736 93.4258 20.312 93.0098 21.048C92.6258 21.784 92.4338 22.664 92.4338 23.688V39H85.2338ZM126.976 39.576C124.384 39.576 122.016 38.984 119.872 37.8C117.76 36.616 116.064 35 114.784 32.952C113.536 30.872 112.912 28.52 112.912 25.896C112.912 23.24 113.536 20.888 114.784 18.84C116.064 16.792 117.76 15.176 119.872 13.992C122.016 12.808 124.384 12.216 126.976 12.216C129.568 12.216 131.92 12.808 134.032 13.992C136.144 15.176 137.824 16.792 139.072 18.84C140.352 20.888 140.992 23.24 140.992 25.896C140.992 28.52 140.352 30.872 139.072 32.952C137.824 35 136.144 36.616 134.032 37.8C131.92 38.984 129.568 39.576 126.976 39.576ZM126.976 33.096C128.288 33.096 129.424 32.792 130.384 32.184C131.376 31.576 132.144 30.728 132.688 29.64C133.264 28.552 133.552 27.304 133.552 25.896C133.552 24.488 133.264 23.256 132.688 22.2C132.144 21.112 131.376 20.264 130.384 19.656C129.424 19.016 128.288 18.696 126.976 18.696C125.664 18.696 124.512 19.016 123.52 19.656C122.528 20.264 121.744 21.112 121.168 22.2C120.624 23.256 120.352 24.488 120.352 25.896C120.352 27.304 120.624 28.552 121.168 29.64C121.744 30.728 122.528 31.576 123.52 32.184C124.512 32.792 125.664 33.096 126.976 33.096ZM145.234 39V12.792H151.954V19.08L151.474 18.168C152.05 15.96 152.994 14.472 154.306 13.704C155.65 12.904 157.234 12.504 159.058 12.504H160.594V18.744H158.338C156.578 18.744 155.154 19.288 154.066 20.376C152.978 21.432 152.434 22.936 152.434 24.888V39H145.234ZM176.373 39.576C173.589 39.576 171.173 38.968 169.125 37.752C167.077 36.504 165.493 34.84 164.373 32.76C163.253 30.68 162.693 28.376 162.693 25.848C162.693 23.224 163.269 20.888 164.421 18.84C165.605 16.792 167.189 15.176 169.173 13.992C171.157 12.808 173.397 12.216 175.893 12.216C177.973 12.216 179.813 12.552 181.413 13.224C183.013 13.864 184.357 14.776 185.445 15.96C186.565 17.144 187.413 18.52 187.989 20.088C188.565 21.624 188.853 23.304 188.853 25.128C188.853 25.64 188.821 26.152 188.757 26.664C188.725 27.144 188.645 27.56 188.517 27.912H168.885V22.632H184.437L181.029 25.128C181.349 23.752 181.333 22.536 180.981 21.48C180.629 20.392 180.005 19.544 179.109 18.936C178.245 18.296 177.173 17.976 175.893 17.976C174.645 17.976 173.573 18.28 172.677 18.888C171.781 19.496 171.109 20.392 170.661 21.576C170.213 22.76 170.037 24.2 170.133 25.896C170.005 27.368 170.181 28.664 170.661 29.784C171.141 30.904 171.877 31.784 172.869 32.424C173.861 33.032 175.061 33.336 176.469 33.336C177.749 33.336 178.837 33.08 179.733 32.568C180.661 32.056 181.381 31.352 181.893 30.456L187.653 33.192C187.141 34.472 186.325 35.592 185.205 36.552C184.117 37.512 182.821 38.264 181.317 38.808C179.813 39.32 178.165 39.576 176.373 39.576ZM203.365 39.576C200.485 39.576 197.973 38.904 195.829 37.56C193.717 36.184 192.277 34.344 191.509 32.04L196.789 29.544C197.461 30.952 198.373 32.056 199.525 32.856C200.677 33.656 201.957 34.056 203.365 34.056C204.389 34.056 205.173 33.848 205.717 33.432C206.261 33.016 206.533 32.44 206.533 31.704C206.533 31.32 206.437 31 206.245 30.744C206.053 30.456 205.765 30.2 205.381 29.976C204.997 29.752 204.517 29.56 203.941 29.4L199.477 28.152C197.333 27.544 195.685 26.568 194.533 25.224C193.381 23.848 192.805 22.232 192.805 20.376C192.805 18.744 193.221 17.32 194.053 16.104C194.885 14.888 196.053 13.944 197.557 13.272C199.061 12.568 200.789 12.216 202.741 12.216C205.301 12.216 207.541 12.824 209.461 14.04C211.413 15.224 212.789 16.904 213.589 19.08L208.261 21.576C207.877 20.488 207.173 19.624 206.149 18.984C205.157 18.312 204.021 17.976 202.741 17.976C201.813 17.976 201.077 18.168 200.533 18.552C200.021 18.936 199.765 19.464 199.765 20.136C199.765 20.488 199.861 20.808 200.053 21.096C200.245 21.384 200.549 21.64 200.965 21.864C201.413 22.088 201.957 22.296 202.597 22.488L206.773 23.736C208.949 24.376 210.613 25.352 211.765 26.664C212.917 27.944 213.493 29.528 213.493 31.416C213.493 33.048 213.061 34.472 212.197 35.688C211.365 36.904 210.197 37.864 208.693 38.568C207.189 39.24 205.413 39.576 203.365 39.576ZM234.533 39.576C232.645 39.576 231.013 39.272 229.637 38.664C228.261 38.056 227.205 37.192 226.469 36.072C225.733 34.92 225.365 33.56 225.365 31.992C225.365 30.52 225.701 29.224 226.373 28.104C227.045 26.952 228.069 25.992 229.445 25.224C230.853 24.456 232.597 23.912 234.677 23.592L242.693 22.296V27.576L235.973 28.776C234.949 28.968 234.165 29.304 233.621 29.784C233.077 30.232 232.805 30.888 232.805 31.752C232.805 32.552 233.109 33.176 233.717 33.624C234.325 34.072 235.077 34.296 235.973 34.296C237.157 34.296 238.197 34.04 239.093 33.528C239.989 33.016 240.677 32.328 241.157 31.464C241.669 30.568 241.925 29.592 241.925 28.536V21.72C241.925 20.728 241.525 19.896 240.725 19.224C239.957 18.552 238.901 18.216 237.557 18.216C236.277 18.216 235.141 18.568 234.149 19.272C233.189 19.976 232.485 20.904 232.037 22.056L226.277 19.32C226.789 17.848 227.605 16.584 228.725 15.528C229.845 14.472 231.189 13.656 232.757 13.08C234.325 12.504 236.037 12.216 237.893 12.216C240.101 12.216 242.053 12.616 243.749 13.416C245.445 14.216 246.757 15.336 247.685 16.776C248.645 18.184 249.125 19.832 249.125 21.72V39H242.405V34.776L244.037 34.488C243.269 35.64 242.421 36.6 241.493 37.368C240.565 38.104 239.525 38.648 238.373 39C237.221 39.384 235.941 39.576 234.533 39.576ZM262.145 39L251.825 12.792H259.601L266.753 32.616H263.777L270.929 12.792H278.705L268.385 39H262.145ZM289.049 39.576C287.161 39.576 285.529 39.272 284.153 38.664C282.777 38.056 281.721 37.192 280.985 36.072C280.249 34.92 279.881 33.56 279.881 31.992C279.881 30.52 280.217 29.224 280.889 28.104C281.561 26.952 282.585 25.992 283.961 25.224C285.369 24.456 287.113 23.912 289.193 23.592L297.209 22.296V27.576L290.489 28.776C289.465 28.968 288.681 29.304 288.137 29.784C287.593 30.232 287.321 30.888 287.321 31.752C287.321 32.552 287.625 33.176 288.233 33.624C288.841 34.072 289.593 34.296 290.489 34.296C291.673 34.296 292.713 34.04 293.609 33.528C294.505 33.016 295.193 32.328 295.673 31.464C296.185 30.568 296.441 29.592 296.441 28.536V21.72C296.441 20.728 296.041 19.896 295.241 19.224C294.473 18.552 293.417 18.216 292.073 18.216C290.793 18.216 289.657 18.568 288.665 19.272C287.705 19.976 287.001 20.904 286.553 22.056L280.793 19.32C281.305 17.848 282.121 16.584 283.241 15.528C284.361 14.472 285.705 13.656 287.273 13.08C288.841 12.504 290.553 12.216 292.409 12.216C294.617 12.216 296.569 12.616 298.265 13.416C299.961 14.216 301.273 15.336 302.201 16.776C303.161 18.184 303.641 19.832 303.641 21.72V39H296.921V34.776L298.553 34.488C297.785 35.64 296.937 36.6 296.009 37.368C295.081 38.104 294.041 38.648 292.889 39C291.737 39.384 290.457 39.576 289.049 39.576ZM308.921 39V2.664H316.121V39H308.921ZM321.39 39V12.792H328.59V39H321.39ZM321.39 10.44V3.24H328.59V10.44H321.39ZM341.971 39.576C340.083 39.576 338.451 39.272 337.075 38.664C335.699 38.056 334.643 37.192 333.907 36.072C333.171 34.92 332.803 33.56 332.803 31.992C332.803 30.52 333.139 29.224 333.811 28.104C334.483 26.952 335.507 25.992 336.883 25.224C338.291 24.456 340.035 23.912 342.115 23.592L350.131 22.296V27.576L343.411 28.776C342.387 28.968 341.603 29.304 341.059 29.784C340.515 30.232 340.243 30.888 340.243 31.752C340.243 32.552 340.547 33.176 341.155 33.624C341.763 34.072 342.515 34.296 343.411 34.296C344.595 34.296 345.635 34.04 346.531 33.528C347.427 33.016 348.115 32.328 348.595 31.464C349.107 30.568 349.363 29.592 349.363 28.536V21.72C349.363 20.728 348.963 19.896 348.163 19.224C347.395 18.552 346.339 18.216 344.995 18.216C343.715 18.216 342.579 18.568 341.587 19.272C340.627 19.976 339.923 20.904 339.475 22.056L333.715 19.32C334.227 17.848 335.043 16.584 336.163 15.528C337.283 14.472 338.627 13.656 340.195 13.08C341.763 12.504 343.475 12.216 345.331 12.216C347.539 12.216 349.491 12.616 351.187 13.416C352.883 14.216 354.195 15.336 355.123 16.776C356.083 18.184 356.563 19.832 356.563 21.72V39H349.843V34.776L351.475 34.488C350.707 35.64 349.859 36.6 348.931 37.368C348.003 38.104 346.963 38.648 345.811 39C344.659 39.384 343.379 39.576 341.971 39.576ZM374.707 39.576C372.083 39.576 369.715 38.984 367.603 37.8C365.523 36.584 363.859 34.936 362.611 32.856C361.395 30.776 360.787 28.44 360.787 25.848C360.787 23.256 361.395 20.936 362.611 18.888C363.827 16.808 365.491 15.176 367.603 13.992C369.715 12.808 372.083 12.216 374.707 12.216C376.659 12.216 378.467 12.552 380.131 13.224C381.795 13.896 383.219 14.84 384.403 16.056C385.587 17.24 386.435 18.648 386.947 20.28L380.707 22.968C380.259 21.656 379.491 20.616 378.403 19.848C377.347 19.08 376.115 18.696 374.707 18.696C373.459 18.696 372.339 19 371.347 19.608C370.387 20.216 369.619 21.064 369.043 22.152C368.499 23.24 368.227 24.488 368.227 25.896C368.227 27.304 368.499 28.552 369.043 29.64C369.619 30.728 370.387 31.576 371.347 32.184C372.339 32.792 373.459 33.096 374.707 33.096C376.147 33.096 377.395 32.712 378.451 31.944C379.507 31.176 380.259 30.136 380.707 28.824L386.947 31.56C386.467 33.096 385.635 34.472 384.451 35.688C383.267 36.904 381.843 37.864 380.179 38.568C378.515 39.24 376.691 39.576 374.707 39.576ZM375.187 50.52C374.355 50.52 373.395 50.392 372.307 50.136C371.251 49.88 370.339 49.496 369.571 48.984L371.059 45C371.539 45.288 372.051 45.512 372.595 45.672C373.171 45.832 373.715 45.912 374.227 45.912C374.931 45.912 375.459 45.768 375.811 45.48C376.195 45.224 376.387 44.856 376.387 44.376C376.387 43.8 376.003 43.336 375.235 42.984C374.467 42.632 373.363 42.392 371.923 42.264L372.883 38.52H376.963L376.579 40.344C378.275 40.504 379.619 41 380.611 41.832C381.603 42.664 382.099 43.704 382.099 44.952C382.099 46.648 381.475 47.992 380.227 48.984C378.979 50.008 377.299 50.52 375.187 50.52ZM404.195 39.576C401.603 39.576 399.235 38.984 397.091 37.8C394.979 36.616 393.283 35 392.003 32.952C390.755 30.872 390.131 28.52 390.131 25.896C390.131 23.24 390.755 20.888 392.003 18.84C393.283 16.792 394.979 15.176 397.091 13.992C399.235 12.808 401.603 12.216 404.195 12.216C406.787 12.216 409.139 12.808 411.251 13.992C413.363 15.176 415.043 16.792 416.291 18.84C417.571 20.888 418.211 23.24 418.211 25.896C418.211 28.52 417.571 30.872 416.291 32.952C415.043 35 413.363 36.616 411.251 37.8C409.139 38.984 406.787 39.576 404.195 39.576ZM404.195 33.096C405.507 33.096 406.643 32.792 407.603 32.184C408.595 31.576 409.363 30.728 409.907 29.64C410.483 28.552 410.771 27.304 410.771 25.896C410.771 24.488 410.483 23.256 409.907 22.2C409.363 21.112 408.595 20.264 407.603 19.656C406.643 19.016 405.507 18.696 404.195 18.696C402.883 18.696 401.731 19.016 400.739 19.656C399.747 20.264 398.963 21.112 398.387 22.2C397.843 23.256 397.571 24.488 397.571 25.896C397.571 27.304 397.843 28.552 398.387 29.64C398.963 30.728 399.747 31.576 400.739 32.184C401.731 32.792 402.883 33.096 404.195 33.096ZM407.891 8.28C406.995 8.28 406.243 8.152 405.635 7.896C405.027 7.64 404.499 7.352 404.051 7.032C403.603 6.712 403.155 6.424 402.707 6.168C402.291 5.912 401.811 5.784 401.267 5.784C400.723 5.784 400.307 5.992 400.019 6.408C399.763 6.792 399.635 7.352 399.635 8.088H394.115C394.115 5.304 394.739 3.288 395.987 2.04C397.267 0.759997 398.755 0.119997 400.451 0.119997C401.379 0.119997 402.147 0.247997 402.755 0.503998C403.395 0.727999 403.955 1.016 404.435 1.368C404.915 1.688 405.363 1.976 405.779 2.232C406.195 2.456 406.643 2.568 407.123 2.568C407.763 2.568 408.195 2.376 408.419 1.992C408.643 1.576 408.755 1.016 408.755 0.311997H414.275C414.243 3 413.587 5 412.307 6.312C411.059 7.624 409.587 8.28 407.891 8.28ZM435.077 39.576C432.293 39.576 429.877 38.968 427.829 37.752C425.781 36.504 424.197 34.84 423.077 32.76C421.957 30.68 421.396 28.376 421.396 25.848C421.396 23.224 421.973 20.888 423.125 18.84C424.309 16.792 425.893 15.176 427.877 13.992C429.861 12.808 432.101 12.216 434.597 12.216C436.677 12.216 438.517 12.552 440.117 13.224C441.717 13.864 443.061 14.776 444.149 15.96C445.269 17.144 446.117 18.52 446.693 20.088C447.269 21.624 447.557 23.304 447.557 25.128C447.557 25.64 447.525 26.152 447.461 26.664C447.429 27.144 447.349 27.56 447.221 27.912H427.589V22.632H443.141L439.733 25.128C440.053 23.752 440.037 22.536 439.685 21.48C439.333 20.392 438.709 19.544 437.813 18.936C436.949 18.296 435.877 17.976 434.597 17.976C433.349 17.976 432.277 18.28 431.381 18.888C430.485 19.496 429.813 20.392 429.365 21.576C428.917 22.76 428.741 24.2 428.837 25.896C428.709 27.368 428.885 28.664 429.365 29.784C429.845 30.904 430.581 31.784 431.573 32.424C432.565 33.032 433.765 33.336 435.173 33.336C436.453 33.336 437.541 33.08 438.437 32.568C439.365 32.056 440.085 31.352 440.597 30.456L446.357 33.192C445.845 34.472 445.029 35.592 443.909 36.552C442.821 37.512 441.525 38.264 440.021 38.808C438.517 39.32 436.869 39.576 435.077 39.576ZM462.068 39.576C459.188 39.576 456.676 38.904 454.532 37.56C452.42 36.184 450.98 34.344 450.212 32.04L455.492 29.544C456.164 30.952 457.076 32.056 458.228 32.856C459.38 33.656 460.66 34.056 462.068 34.056C463.092 34.056 463.876 33.848 464.42 33.432C464.964 33.016 465.236 32.44 465.236 31.704C465.236 31.32 465.14 31 464.948 30.744C464.756 30.456 464.468 30.2 464.084 29.976C463.7 29.752 463.22 29.56 462.644 29.4L458.18 28.152C456.036 27.544 454.388 26.568 453.236 25.224C452.084 23.848 451.508 22.232 451.508 20.376C451.508 18.744 451.924 17.32 452.756 16.104C453.588 14.888 454.756 13.944 456.26 13.272C457.764 12.568 459.492 12.216 461.444 12.216C464.004 12.216 466.244 12.824 468.164 14.04C470.116 15.224 471.492 16.904 472.292 19.08L466.964 21.576C466.58 20.488 465.876 19.624 464.852 18.984C463.86 18.312 462.724 17.976 461.444 17.976C460.516 17.976 459.78 18.168 459.236 18.552C458.724 18.936 458.468 19.464 458.468 20.136C458.468 20.488 458.564 20.808 458.756 21.096C458.948 21.384 459.252 21.64 459.668 21.864C460.116 22.088 460.66 22.296 461.3 22.488L465.476 23.736C467.652 24.376 469.316 25.352 470.468 26.664C471.62 27.944 472.196 29.528 472.196 31.416C472.196 33.048 471.764 34.472 470.9 35.688C470.068 36.904 468.9 37.864 467.396 38.568C465.892 39.24 464.116 39.576 462.068 39.576ZM480.339 27.96L479.859 3.24H487.059L486.579 27.96H480.339ZM479.859 39V31.8H487.059V39H479.859Z" fill="white"/>
</svg>
