<svg width="16" height="17" viewBox="0 0 16 17" fill="none" xmlns="http://www.w3.org/2000/svg">
<path d="M5.00695 11.7083L15 1.83333M8.2527 8.5L5.00556 5.29167M15 15.1667L10.3333 10.5557M5.66667 3.5C5.66667 4.88071 4.62199 6 3.33333 6C2.04467 6 1 4.88071 1 3.5C1 2.11929 2.04467 1 3.33333 1C4.62199 1 5.66667 2.11929 5.66667 3.5ZM5.66667 13.5C5.66667 14.8807 4.62199 16 3.33333 16C2.04467 16 1 14.8807 1 13.5C1 12.1192 2.04467 11 3.33333 11C4.62199 11 5.66667 12.1192 5.66667 13.5Z" stroke="white" stroke-width="1.5" stroke-linecap="round" stroke-linejoin="round"/>
</svg>
