<svg width="240" height="82" viewBox="0 0 240 82" fill="none" xmlns="http://www.w3.org/2000/svg">
<path fill-rule="evenodd" clip-rule="evenodd" d="M77.2412 40.6907C76.4725 40.5983 75.6901 40.5508 74.8965 40.5508H58.3448C47.6038 40.5508 38.8965 49.2581 38.8965 59.9991C38.8965 68.8753 44.8429 76.3628 52.9695 78.695C48.5335 80.5715 43.6912 81.6039 38.6207 81.6039C17.2911 81.6039 0 63.3362 0 40.8019C0 18.2676 17.2911 0 38.6207 0C59.9152 0 77.1845 18.2076 77.2412 40.6907Z" fill="#E3A74F"/>
<path d="M52.8543 17.1242C45.9997 27.2047 33.5264 37.1321 16.3851 46.7961C17.2074 44.8702 17.857 43.3938 18.2946 42.7542C19.8091 40.5273 22.8895 34.2208 22.8895 34.2208C22.8895 34.2208 24.5125 35.4241 24.7332 34.8691C24.95 34.3124 34.1334 11.0332 34.1334 11.0332C34.1334 11.0332 29.8035 5.88656 28.2553 9.65983C27.2346 12.152 18.1156 34.3859 12.0463 49.1821C10.8754 49.808 9.69014 50.4391 8.48077 51.0652C7.12286 51.6999 7.82472 53.2854 9.95105 54.2877C7.95002 59.171 6.61934 62.4156 6.61934 62.4156C6.61934 62.4156 6.57835 64.0389 7.67852 63.6214C9.54312 61.2542 11.2768 58.0709 12.801 54.888C24.3188 53.8137 54.9339 27.3387 56.5014 24.8954C58.1157 22.3863 53.2028 14.6235 52.8543 17.1242ZM14.5822 52.0762C14.2226 52.4353 13.6565 52.4132 13.3216 52.0334C12.9843 51.6502 13.0036 51.0482 13.3625 50.6889C13.7222 50.3299 14.2868 50.3502 14.624 50.7336C14.9589 51.1148 14.9413 51.7186 14.5822 52.0762Z" fill="#082031"/>
</svg>
