<svg width="16" height="16" viewBox="0 0 16 16" fill="none" xmlns="http://www.w3.org/2000/svg">
<path fill-rule="evenodd" clip-rule="evenodd" d="M3.63653 0C3.23485 0 2.90922 0.311454 2.90922 0.695645V1.39129H2.18192C0.97688 1.39129 0 2.32564 0 3.47822V13.2173C0 14.3699 0.97688 15.3042 2.18192 15.3042H8.07381C7.64769 14.9048 7.29465 14.4344 7.03566 13.9129H2.18192C1.78024 13.9129 1.45461 13.6015 1.45461 13.2173V6.95645H13.0915V7.15812C13.6169 7.30768 14.1068 7.5362 14.5461 7.82927V3.47822C14.5461 2.32564 13.5693 1.39129 12.3642 1.39129H11.6369V0.695645C11.6369 0.311454 11.3113 0 10.9096 0C10.5079 0 10.1823 0.311454 10.1823 0.695645V1.39129H4.36383V0.695645C4.36383 0.311454 4.0382 0 3.63653 0ZM10.1823 3.47822V2.78258H4.36383V3.47822C4.36383 3.86241 4.0382 4.17387 3.63653 4.17387C3.23485 4.17387 2.90922 3.86241 2.90922 3.47822V2.78258H2.18192C1.78024 2.78258 1.45461 3.09403 1.45461 3.47822V5.56516H13.0915V3.47822C13.0915 3.09403 12.7659 2.78258 12.3642 2.78258H11.6369V3.47822C11.6369 3.86241 11.3113 4.17387 10.9096 4.17387C10.5079 4.17387 10.1823 3.86241 10.1823 3.47822Z" fill="white" stroke="white" stroke-width="0.00162"/>
<path d="M10.9082 10.4349C10.9082 10.0507 11.2338 9.73926 11.6355 9.73926C12.0372 9.73926 12.3628 10.0507 12.3628 10.4349V11.6196L13.0029 12.2318C13.2869 12.5035 13.2869 12.9439 13.0029 13.2156C12.7189 13.4873 12.2584 13.4873 11.9744 13.2156L11.1212 12.3996C10.9684 12.2535 10.8978 12.0584 10.9094 11.8671C10.9086 11.8535 10.9082 11.8399 10.9082 11.8262V10.4349Z" fill="white" stroke="white" stroke-width="0.00162"/>
<path fill-rule="evenodd" clip-rule="evenodd" d="M15.9991 11.8262C15.9991 14.1314 14.0454 16.0001 11.6353 16.0001C9.22524 16.0001 7.27148 14.1314 7.27148 11.8262C7.27148 9.52105 9.22524 7.65234 11.6353 7.65234C14.0454 7.65234 15.9991 9.52105 15.9991 11.8262ZM8.71293 11.8262C8.71293 13.3699 10.0214 14.6214 11.6353 14.6214C13.2493 14.6214 14.5577 13.3699 14.5577 11.8262C14.5577 10.2825 13.2493 9.03104 11.6353 9.03104C10.0214 9.03104 8.71293 10.2825 8.71293 11.8262Z" fill="white" stroke="white" stroke-width="0.00162"/>
</svg>
