<svg width="17" height="17" viewBox="0 0 17 17" fill="none" xmlns="http://www.w3.org/2000/svg">
<path d="M14.8594 7.09306V15.6641C14.8594 15.9406 14.6359 16.1641 14.3594 16.1641C14.0829 16.1641 13.8594 15.9406 13.8594 15.6641V7.09306C12.9989 6.86956 12.3594 6.09356 12.3594 5.16406C12.3594 4.23456 12.9989 3.45856 13.8594 3.23506V0.664062C13.8594 0.387563 14.0829 0.164062 14.3594 0.164062C14.6359 0.164062 14.8594 0.387563 14.8594 0.664062V3.23506C15.7199 3.45856 16.3594 4.23456 16.3594 5.16406C16.3594 6.09356 15.7199 6.86956 14.8594 7.09306ZM14.3594 4.16406C13.8084 4.16406 13.3594 4.61256 13.3594 5.16406C13.3594 5.71556 13.8084 6.16406 14.3594 6.16406C14.9109 6.16406 15.3594 5.71556 15.3594 5.16406C15.3594 4.61256 14.9109 4.16406 14.3594 4.16406ZM8.85938 13.0931V15.6641C8.85938 15.9406 8.63587 16.1641 8.35938 16.1641C8.08288 16.1641 7.85938 15.9406 7.85938 15.6641V13.0931C6.99888 12.8696 6.35938 12.0936 6.35938 11.1641C6.35938 10.2346 6.99888 9.45856 7.85938 9.23506V0.664062C7.85938 0.387563 8.08288 0.164062 8.35938 0.164062C8.63587 0.164062 8.85938 0.387563 8.85938 0.664062V9.23506C9.71987 9.45856 10.3594 10.2346 10.3594 11.1641C10.3594 12.0936 9.71987 12.8696 8.85938 13.0931ZM8.35938 10.1641C7.80787 10.1641 7.35938 10.6131 7.35938 11.1641C7.35938 11.7151 7.80787 12.1641 8.35938 12.1641C8.91088 12.1641 9.35938 11.7151 9.35938 11.1641C9.35938 10.6131 8.91088 10.1641 8.35938 10.1641ZM2.85938 10.0931V15.6641C2.85938 15.9406 2.63587 16.1641 2.35938 16.1641C2.08288 16.1641 1.85938 15.9406 1.85938 15.6641V10.0931C0.998875 9.86956 0.359375 9.09356 0.359375 8.16406C0.359375 7.23456 0.998875 6.45856 1.85938 6.23506V0.664062C1.85938 0.387563 2.08288 0.164062 2.35938 0.164062C2.63587 0.164062 2.85938 0.387563 2.85938 0.664062V6.23506C3.71987 6.45856 4.35938 7.23456 4.35938 8.16406C4.35938 9.09356 3.71987 9.86956 2.85938 10.0931ZM2.35938 7.16406C1.80838 7.16406 1.35938 7.61306 1.35938 8.16406C1.35938 8.71556 1.80838 9.16406 2.35938 9.16406C2.91037 9.16406 3.35938 8.71556 3.35938 8.16406C3.35938 7.61306 2.91037 7.16406 2.35938 7.16406Z" fill="white"/>
</svg>
