<svg width="16" height="17" viewBox="0 0 16 17" fill="none" xmlns="http://www.w3.org/2000/svg">
<path fill-rule="evenodd" clip-rule="evenodd" d="M13.1606 1.12966L14.7521 2.39695C14.9057 2.5416 14.9924 2.74364 14.9912 2.9547C14.9901 3.16575 14.9012 3.36683 14.746 3.50978L13.5366 4.95696L9.42167 9.86459C9.34962 9.94701 9.25378 10.0049 9.14728 10.0302L7.01309 10.514C6.73311 10.528 6.4893 10.3245 6.45312 10.0465V7.85337C6.46034 7.74758 6.50292 7.64737 6.57406 7.56882L10.6128 3.00266L11.999 1.34714C12.2731 0.987662 12.7748 0.893748 13.1606 1.12966Z" stroke="#E3A74F" stroke-width="1.5" stroke-linecap="round" stroke-linejoin="round"/>
<path d="M7.40155 3.66126C7.8225 3.66126 8.16376 3.32001 8.16376 2.89905C8.16376 2.4781 7.8225 2.13684 7.40155 2.13684V3.66126ZM4.55599 2.89905V2.13684H4.55416L4.55599 2.89905ZM0.762219 6.71014H1.52443V6.70841L0.762219 6.71014ZM0.762219 12.4267L1.52443 12.4283V12.4267H0.762219ZM4.55599 16.2377L4.55416 17H4.55599V16.2377ZM10.2471 16.2377V17H10.249L10.2471 16.2377ZM14.0409 12.4267H13.2787V12.4283L14.0409 12.4267ZM14.8031 8.61566C14.8031 8.19462 14.4618 7.85346 14.0409 7.85346C13.62 7.85346 13.2787 8.19462 13.2787 8.61566H14.8031ZM11.3176 2.71186C11.1569 2.32276 10.7113 2.13754 10.3221 2.29818C9.933 2.45881 9.74783 2.90446 9.90851 3.29356L11.3176 2.71186ZM13.7014 5.69719C14.1123 5.60633 14.3719 5.19947 14.281 4.78843C14.1902 4.3774 13.7834 4.11784 13.3723 4.20871L13.7014 5.69719ZM3.6078 12.6178C3.18684 12.6178 2.84559 12.9589 2.84559 13.38C2.84559 13.8009 3.18684 14.1422 3.6078 14.1422V12.6178ZM11.1963 14.1422C11.6173 14.1422 11.9585 13.8009 11.9585 13.38C11.9585 12.9589 11.6173 12.6178 11.1963 12.6178V14.1422ZM7.40155 2.13684H4.55599V3.66126H7.40155V2.13684ZM4.55416 2.13684C2.03338 2.1429 -0.00538575 4.19095 1.06882e-05 6.71177L1.52443 6.70841C1.52083 5.02944 2.8788 3.66529 4.55781 3.66126L4.55416 2.13684ZM1.06882e-05 6.71014V12.4267H1.52443V6.71014H1.06882e-05ZM1.06882e-05 12.425C-0.00538575 14.9458 2.03338 16.9939 4.55416 17L4.55781 15.4755C2.8788 15.4715 1.52083 14.1073 1.52443 12.4283L1.06882e-05 12.425ZM4.55599 17H10.2471V15.4755H4.55599V17ZM10.249 17C12.7697 16.9939 14.8085 14.9458 14.8031 12.425L13.2787 12.4283C13.2822 14.1073 11.9243 15.4715 10.2453 15.4755L10.249 17ZM14.8031 12.4267V8.61566H13.2787V12.4267H14.8031ZM9.90851 3.29356C10.1066 3.77337 10.5107 4.45345 11.1146 4.97892C11.7323 5.51644 12.62 5.93623 13.7014 5.69719L13.3723 4.20871C12.8997 4.31317 12.4891 4.15419 12.1153 3.82889C11.7275 3.49154 11.4467 3.02474 11.3176 2.71186L9.90851 3.29356ZM3.6078 14.1422H11.1963V12.6178H3.6078V14.1422Z" fill="#E3A74F"/>
</svg>
