<svg width="305" height="366" viewBox="0 0 305 366" fill="none" xmlns="http://www.w3.org/2000/svg">
<path d="M271.457 349.449C270.442 346.38 218.047 275.446 214.528 274.172C214.135 273.998 191.68 291.862 191.68 291.862C190.76 293.223 147.23 284.392 147.23 284.392L147.894 340.314L226.791 336.753C226.791 336.753 237.619 343.224 247.446 348.464C251.64 350.874 255.97 353.002 260.413 354.834C264.406 355.804 272.486 352.489 271.457 349.449Z" fill="#8C5B51"/>
<path d="M260.439 354.805C256 352.975 251.674 350.847 247.485 348.435C237.632 343.195 226.831 336.724 226.831 336.724L209.235 337.52L180.811 290.66C186.874 291.674 191.382 292.253 191.639 291.818C191.639 291.818 214.08 273.969 214.486 274.143C218.006 275.446 270.401 346.38 271.416 349.42C272.431 352.46 264.405 355.818 260.439 354.805Z" fill="white"/>
<path d="M271.903 349.521C270.834 346.394 218.209 275.503 214.595 274.157C213.241 273.636 202.223 281.251 191.652 291.833L225.626 337.477C225.626 337.477 256.486 354.096 260.588 355.123C264.689 356.151 272.986 352.662 271.903 349.521Z" fill="#E3A74F"/>
<path d="M268.52 350.824C259.424 339.243 223.772 291.254 215.61 279.007C215.542 278.906 215.61 278.848 215.61 279.007C224.855 290.342 260.155 338.562 268.628 350.723C268.885 350.824 268.709 351.012 268.52 350.824Z" fill="#263238"/>
<path d="M254.849 352.59C253.833 351.296 253.08 349.789 252.637 348.167C252.194 346.545 252.072 344.842 252.278 343.166C252.623 340.152 254.044 337.398 256.243 335.479C256.311 335.479 256.406 335.551 256.338 335.624C254.436 337.894 253.276 340.763 253.032 343.8C252.788 346.837 253.473 349.876 254.985 352.46C255.052 352.561 254.917 352.677 254.849 352.59Z" fill="#263238"/>
<path d="M229.538 340.271C225.938 335.566 223.42 328.69 224.868 322.667C224.868 322.436 225.234 322.523 225.261 322.667C226.313 328.555 227.951 334.306 230.147 339.822C230.203 339.908 230.224 340.015 230.206 340.118C230.189 340.221 230.133 340.312 230.052 340.372C229.972 340.431 229.872 340.454 229.776 340.435C229.679 340.416 229.594 340.357 229.538 340.271Z" fill="#263238"/>
<path d="M233.598 342.804C230.011 338.099 227.48 331.223 228.929 325.201C228.929 324.969 229.294 325.056 229.335 325.201C230.376 331.09 232.01 336.842 234.207 342.355C234.263 342.442 234.284 342.548 234.267 342.651C234.249 342.755 234.193 342.846 234.113 342.905C234.073 342.935 234.028 342.956 233.98 342.966C233.933 342.977 233.884 342.978 233.836 342.969C233.739 342.95 233.654 342.89 233.598 342.804Z" fill="#263238"/>
<path d="M237.659 345.337C234.072 340.632 231.554 333.756 232.989 327.734C232.989 327.502 233.354 327.589 233.395 327.734C234.445 333.621 236.079 339.372 238.268 344.889C238.323 344.975 238.345 345.081 238.327 345.185C238.309 345.288 238.254 345.379 238.173 345.439C238.092 345.498 237.993 345.521 237.896 345.502C237.8 345.483 237.714 345.424 237.659 345.337Z" fill="#263238"/>
<path d="M241.734 347.929C238.133 343.224 235.616 336.348 237.05 330.325C237.05 330.094 237.416 330.181 237.456 330.325C238.505 336.214 240.143 341.966 242.343 347.48C242.398 347.566 242.42 347.673 242.402 347.776C242.384 347.879 242.329 347.97 242.248 348.03C242.208 348.059 242.163 348.08 242.115 348.091C242.068 348.102 242.019 348.103 241.971 348.093C241.875 348.074 241.789 348.015 241.734 347.929Z" fill="#263238"/>
<path d="M207.3 290.935C203.348 285.579 211.117 279.021 215.069 284.377C219.022 289.734 211.253 296.291 207.3 290.935Z" fill="#263238"/>
<path d="M227.725 349.564C228.916 344.367 227.955 338.809 227.63 333.554C227.614 333.439 227.572 333.33 227.509 333.236C227.446 333.141 227.363 333.064 227.267 333.011C227.17 332.957 227.064 332.928 226.955 332.927C226.847 332.926 226.739 332.952 226.642 333.004C226.627 332.985 226.608 332.97 226.587 332.96C226.566 332.95 226.543 332.945 226.52 332.945C226.497 332.945 226.474 332.95 226.453 332.96C226.432 332.97 226.414 332.985 226.398 333.004C222.594 336.819 219.794 341.636 218.277 346.973C217.452 350.1 217.871 354.689 221.526 355.514C225.18 356.339 227.035 352.604 227.725 349.564ZM224.206 352.908C219.008 356.557 219.265 348.725 219.969 346.452C220.437 344.962 221.007 343.51 221.675 342.109C223.077 339.268 224.613 336.504 226.277 333.829C226.277 336.42 226.507 338.982 226.601 341.559C226.723 344.7 227.062 350.911 224.206 352.908Z" fill="#263238"/>
<path d="M210.995 318.484C208.369 321.379 210.372 325.403 212.687 327.517C216.71 331.084 221.543 333.451 226.696 334.379C226.818 334.379 226.872 334.306 226.872 334.205C226.981 334.193 227.085 334.153 227.177 334.089C227.269 334.025 227.345 333.938 227.399 333.836C227.453 333.734 227.484 333.62 227.489 333.503C227.494 333.386 227.472 333.269 227.427 333.163C224.99 328.588 222.919 323.391 219.305 319.758C217.14 317.63 213.512 315.806 210.995 318.484ZM222.405 327.039C223.664 329.254 224.801 331.527 226.114 333.698C223.407 332.352 220.618 331.136 217.993 329.5C216.726 328.729 215.51 327.868 214.352 326.923C212.592 325.476 208.355 319.048 214.568 319.034C218.033 318.976 220.957 324.405 222.432 327.039H222.405Z" fill="#263238"/>
<path d="M144.672 271.059L109.087 268.063C109.087 268.063 57.6532 252.139 27.9838 260.463C-6.07102 270.031 -10.876 312.577 23.7473 329.631C58.0457 346.481 208.788 340.285 208.788 340.285L176.466 289.082C176.466 289.082 126.819 276.618 83.3567 279.152L144.888 286.723L144.672 271.059Z" fill="#37474F"/>
<path d="M144.306 281.888C139.014 280.961 133.654 280.44 128.321 279.962C122.988 279.485 117.493 279.007 112.079 278.645C101.306 277.892 90.5047 277.718 79.7157 278.124C78.7006 278.124 77.699 278.225 76.6838 278.297C76.4658 278.231 76.2444 278.178 76.0206 278.138C75.5063 278.008 74.9784 277.878 74.464 277.791C73.476 277.617 72.5014 277.487 71.5134 277.342C69.4695 277.053 67.4528 276.864 65.3819 276.502C65.2601 276.502 65.2059 276.691 65.3819 276.705C67.4392 277.154 69.4425 277.733 71.5134 278.153L73.2865 278.515C69.3342 278.819 65.3954 279.238 61.4566 279.716C61.3348 279.716 61.3348 279.933 61.4566 279.919C66.8707 279.456 72.2848 279.296 77.6178 279.282C82.9507 279.267 88.2971 279.282 93.6435 279.47C104.472 279.89 115.3 280.686 126.02 281.656C132.057 282.192 138.121 282.858 144.184 282.988C144.78 283.017 144.902 281.989 144.306 281.888Z" fill="#263238"/>
<path d="M193.399 339.112C191.409 335.855 189.69 332.367 187.863 328.979L182.341 318.846C178.659 312.114 165.476 289.502 164.19 287.924C164.109 287.823 163.946 287.924 163.987 288.069C164.623 289.821 172.866 304.804 174.815 308.148C178.605 314.821 182.584 321.365 186.496 327.951C187.62 329.833 188.77 331.701 189.907 333.568C191.044 335.435 192.249 337.274 193.291 339.199C193.25 339.344 193.399 339.243 193.399 339.112Z" fill="#263238"/>
<path d="M16.3164 359.756C17.1962 356.643 66.397 283.147 69.8485 281.656C70.241 281.468 93.4676 298.159 93.4676 298.159C94.4422 299.476 137.525 288.46 137.525 288.46L139.339 344.353L60.3738 344.787C60.3738 344.787 49.8839 351.794 40.2603 357.541C36.1762 360.157 31.9452 362.502 27.5913 364.562C23.639 365.763 15.4231 362.854 16.3164 359.756Z" fill="#8C5B51"/>
<path d="M27.5636 364.562C31.9154 362.507 36.1422 360.162 40.2191 357.541C49.8292 351.75 60.3326 344.787 60.3326 344.787L77.9285 344.7L104.255 296.451C98.245 297.768 93.7648 298.579 93.4264 298.159C93.4264 298.159 70.1998 281.453 69.8073 281.656C66.3558 283.104 17.155 356.643 16.2752 359.756C15.3954 362.868 23.6384 365.764 27.5636 364.562Z" fill="white"/>
<path d="M15.856 359.872C16.7764 356.687 66.2208 283.147 69.7536 281.699C71.1071 281.106 82.4362 288.156 93.4674 298.173L61.5376 345.511C61.5376 345.511 31.4622 363.664 27.4016 364.895C23.341 366.125 14.9356 363.056 15.856 359.872Z" fill="#E3A74F"/>
<path d="M19.3216 360.957C27.8895 348.855 61.3758 299.201 68.9962 286.534C68.9962 286.433 68.9962 286.39 68.915 286.534C60.1847 298.318 27.0638 348.276 19.1321 360.856C18.9562 361.044 19.1321 361.189 19.3216 360.957Z" fill="#263238"/>
<path d="M33.0602 362.058C34.0137 360.712 34.696 359.169 35.0641 357.527C35.4321 355.885 35.478 354.179 35.1988 352.518C34.743 349.535 33.2307 346.855 30.9758 345.033C30.9758 345.033 30.8134 345.12 30.8675 345.193C32.868 347.363 34.1555 350.17 34.5363 353.19C34.9171 356.211 34.3706 359.282 32.979 361.942C32.9771 361.955 32.9777 361.969 32.9808 361.982C32.9838 361.995 32.9893 362.007 32.9969 362.018C33.0044 362.029 33.0139 362.038 33.0248 362.044C33.0357 362.051 33.0477 362.056 33.0602 362.058Z" fill="#263238"/>
<path d="M57.7886 348.464C61.1724 343.586 63.3922 336.623 61.6732 330.658C61.6732 330.427 61.3078 330.528 61.2807 330.731C60.51 336.66 59.1487 342.483 57.2201 348.102C57.2066 348.178 57.2152 348.257 57.2448 348.327C57.2745 348.398 57.3237 348.457 57.3858 348.496C57.4478 348.536 57.5198 348.554 57.5919 348.548C57.664 348.543 57.7326 348.513 57.7886 348.464Z" fill="#263238"/>
<path d="M53.8365 351.2C57.2203 346.322 59.44 339.359 57.7346 333.394C57.7346 333.163 57.3556 333.264 57.3285 333.467C56.5579 339.396 55.1966 345.219 53.268 350.838C53.2544 350.914 53.2631 350.993 53.2927 351.063C53.3223 351.134 53.3715 351.193 53.4336 351.232C53.4957 351.272 53.5677 351.29 53.6398 351.284C53.7118 351.279 53.7805 351.249 53.8365 351.2Z" fill="#263238"/>
<path d="M49.9248 353.936C53.2951 349.058 55.5148 342.095 53.8094 336.13C53.7417 335.899 53.4439 336 53.4169 336.13C52.6401 342.058 51.279 347.881 49.3563 353.502C49.3152 353.583 49.3032 353.677 49.3224 353.766C49.3417 353.856 49.3909 353.935 49.4609 353.988C49.5308 354.042 49.6165 354.066 49.702 354.056C49.7875 354.047 49.8667 354.004 49.9248 353.936Z" fill="#263238"/>
<path d="M45.9455 356.687C49.3293 351.794 51.5491 344.831 49.8301 338.866C49.8301 338.635 49.4646 338.736 49.4376 338.939C48.6669 344.868 47.3056 350.691 45.377 356.31C45.3596 356.388 45.3654 356.468 45.3936 356.542C45.4218 356.615 45.4709 356.677 45.5339 356.719C45.5969 356.76 45.6706 356.78 45.7445 356.774C45.8184 356.768 45.8887 356.738 45.9455 356.687Z" fill="#263238"/>
<path d="M77.8214 298.072C81.53 292.528 73.4766 286.361 69.7679 291.905C66.0592 297.45 74.0992 303.617 77.8214 298.072Z" fill="#263238"/>
<path d="M66.505 363.259C70.1189 362.26 70.3355 357.657 69.361 354.573C67.603 349.31 64.5775 344.636 60.5901 341.023C60.4954 340.937 60.4141 341.023 60.36 341.023C60.2591 340.978 60.1497 340.958 60.0404 340.965C59.931 340.972 59.8248 341.007 59.7301 341.066C59.6355 341.125 59.5551 341.207 59.4952 341.305C59.4354 341.403 59.3978 341.515 59.3854 341.631C59.3042 346.886 58.5869 352.489 60.0081 357.628C60.8337 360.668 63.0806 364.215 66.505 363.259ZM60.7525 349.666C60.7525 347.089 60.8337 344.512 60.7525 341.935C62.5329 344.52 64.1864 347.202 65.7064 349.97C66.4289 351.317 67.0665 352.715 67.6149 354.153C68.4135 356.397 68.9684 364.2 63.6626 360.842C60.7525 358.974 60.7525 352.749 60.7525 349.666Z" fill="#263238"/>
<path d="M67.1282 327.459C63.6226 331.281 61.7818 336.579 59.562 341.27C59.521 341.378 59.5048 341.495 59.5144 341.611C59.5241 341.728 59.5594 341.84 59.6176 341.939C59.6757 342.038 59.755 342.121 59.8488 342.18C59.9427 342.24 60.0485 342.275 60.1575 342.283C60.155 342.308 60.158 342.333 60.1661 342.356C60.1743 342.379 60.1874 342.4 60.2045 342.417C60.2216 342.434 60.2422 342.446 60.2646 342.453C60.287 342.46 60.3106 342.461 60.3335 342.457C65.439 341.263 70.1623 338.657 74.0312 334.9C76.2375 332.671 78.0918 328.501 75.3171 325.794C72.5423 323.087 69.172 325.23 67.1282 327.459ZM71.7573 326.504C77.9565 326.214 74.0042 332.801 72.3122 334.379C71.1981 335.379 70.0224 336.298 68.7931 337.129C66.2322 338.805 63.594 340.341 60.8884 341.733C62.1066 339.503 63.1488 337.173 64.2993 334.9C65.6664 332.193 68.3329 326.663 71.7573 326.504Z" fill="#263238"/>
<path d="M139.487 271.204L174.909 270.205C174.909 270.205 211.454 250.098 241.53 256.93C275.963 264.748 281.486 310.594 256.31 327.575C224.421 349.087 80.1211 349.188 80.1211 349.188L109.899 291.804C109.899 291.804 157.584 279.644 201.113 279.977L139.974 290.66L139.487 271.204Z" fill="#37474F"/>
<path d="M107.896 295.553C107.931 295.461 107.954 295.363 107.964 295.264V295.018L108.086 294.467C108.18 294.091 108.302 293.729 108.424 293.353C108.546 292.976 108.695 292.629 108.83 292.267C108.995 291.914 109.186 291.576 109.399 291.254C109.399 291.254 109.399 291.254 109.48 291.181H109.548H109.629C114.88 289.98 150.573 283.48 155.892 282.684C161.212 281.887 166.612 281.236 171.999 280.556C182.724 279.253 193.502 278.529 204.295 278.384C205.31 278.384 206.325 278.384 207.34 278.384C207.553 278.306 207.77 278.243 207.99 278.196C208.504 278.051 209.018 277.892 209.533 277.776C210.507 277.545 211.482 277.356 212.456 277.168C214.487 276.777 216.517 276.488 218.547 276.025C218.669 276.025 218.723 276.198 218.547 276.227C216.517 276.777 214.487 277.458 212.497 277.993L210.737 278.442C214.703 278.558 218.656 278.775 222.621 279.05C222.647 279.05 222.671 279.061 222.688 279.08C222.706 279.099 222.716 279.125 222.716 279.151C222.716 279.178 222.706 279.204 222.688 279.223C222.671 279.242 222.647 279.253 222.621 279.253C217.207 279.065 211.793 279.18 206.447 279.426C201.1 279.673 195.781 279.948 190.448 280.44C179.62 281.395 168.927 282.742 158.207 284.247C152.197 285.101 115.801 291.833 109.751 292.281H109.669C109.632 292.435 109.582 292.585 109.52 292.73L109.033 293.787C108.871 294.12 108.708 294.453 108.519 294.786L108.235 295.264L108.086 295.495C108.086 295.568 107.95 295.669 107.937 295.741C107.923 295.814 107.829 295.683 107.896 295.553Z" fill="#263238"/>
<path d="M91.2754 345.482C93.1298 342.124 94.6863 338.562 96.3647 335.103L101.427 324.709C104.811 317.803 116.979 294.54 118.197 292.861C118.265 292.759 118.441 292.861 118.4 292.991C117.845 294.786 110.279 310.16 108.533 313.591C105.041 320.453 101.359 327.198 97.7047 333.973C96.676 335.913 95.5932 337.824 94.551 339.764C93.5088 341.704 92.3853 343.586 91.4243 345.554C91.426 345.572 91.4234 345.59 91.4165 345.606C91.4097 345.623 91.399 345.637 91.3854 345.647C91.3719 345.658 91.356 345.664 91.3394 345.666C91.3228 345.668 91.3061 345.665 91.2909 345.657C91.2757 345.65 91.2626 345.638 91.2529 345.624C91.2432 345.609 91.2373 345.592 91.2358 345.574C91.2342 345.557 91.237 345.539 91.244 345.523C91.251 345.506 91.2618 345.492 91.2754 345.482Z" fill="#263238"/>
<path d="M210.467 117.581L203.009 160.764C202.657 162.038 203.307 163.022 204.457 162.935L224.963 161.488C225.585 161.391 226.169 161.109 226.647 160.674C227.126 160.238 227.481 159.668 227.67 159.027L235.128 115.844C235.48 114.57 234.83 113.6 233.68 113.672L213.187 115.12C212.564 115.216 211.978 115.497 211.496 115.933C211.015 116.368 210.658 116.939 210.467 117.581Z" fill="#37474F"/>
<path d="M212.903 117.393L205.445 160.576C205.093 161.85 205.743 162.834 206.88 162.747L227.386 161.3C228.008 161.205 228.593 160.923 229.072 160.488C229.551 160.052 229.905 159.48 230.093 158.839L237.565 115.656C237.917 114.382 237.267 113.397 236.116 113.484L215.61 114.932C214.989 115.03 214.406 115.313 213.927 115.748C213.449 116.183 213.094 116.753 212.903 117.393Z" fill="#455A64"/>
<path d="M218.642 118.942C218.657 119.311 218.57 119.677 218.391 119.994C218.212 120.31 217.95 120.563 217.636 120.719C217.323 120.876 216.973 120.929 216.632 120.873C216.29 120.817 215.971 120.653 215.717 120.403C215.462 120.153 215.282 119.828 215.201 119.468C215.119 119.109 215.139 118.732 215.258 118.384C215.377 118.037 215.59 117.736 215.869 117.518C216.149 117.3 216.482 117.176 216.828 117.161C217.289 117.142 217.738 117.318 218.078 117.652C218.418 117.985 218.621 118.449 218.642 118.942Z" fill="#263238"/>
<path d="M148.232 186.474C161.213 212.227 189.055 245.031 199.856 244.539C204.986 244.307 214.217 245.074 220.619 238.372C234.601 223.751 245.524 196.694 247.256 181.48C247.866 176.08 222.893 165.903 219.523 170.478C211.618 181.205 202.861 201.833 201.358 201.804C195.809 201.674 173.232 183.723 157.463 171.086C138.324 155.726 143.062 176.21 148.232 186.474Z" fill="#8C5B51"/>
<path d="M246.416 153.758C243.276 143.031 240.935 140.729 242.775 130.233C243.98 123.299 240.366 119.506 236.116 125.254C229.172 134.663 230.512 149.415 232.353 154.394L246.416 153.758Z" fill="#8C5B51"/>
<path d="M246.308 186.228C246.308 186.228 250.057 170.796 247.77 159.012C246.186 150.862 240.894 133.534 218.899 125.529C213.674 123.632 204.985 124.892 212.456 131.319C217.762 135.879 222.405 137.11 225.044 140.309C225.044 140.309 214.216 143.291 212.591 148.995C211.212 153.936 210.167 158.977 209.465 164.079C210.308 164.429 211.171 164.719 212.05 164.948C212.05 164.948 210.697 170.304 214.757 177.542L246.308 186.228Z" fill="#8C5B51"/>
<path d="M245.09 151.485C241.842 148.85 234.858 143.392 227.697 141.047C219.739 138.456 203.767 135.734 201.98 142.032C200.708 146.664 206.718 148.271 206.718 148.271C206.718 148.271 199.95 148.633 199.598 153.077C199.327 157.13 204.051 158.071 204.051 158.071C204.051 158.071 199.991 159.056 200.397 163.008C200.925 167.756 209.438 164.919 213.932 169.233C214.92 170.203 245.09 151.485 245.09 151.485Z" fill="#8C5B51"/>
<path d="M226.533 150.5C220.373 147.613 213.539 146.795 206.934 148.155C206.772 148.155 206.718 148.358 206.867 148.343C213.488 148.239 220.097 148.998 226.547 150.602L226.533 150.5Z" fill="#263238"/>
<path d="M223.839 159.012C220.713 157.666 211.481 155.77 204.118 157.912C203.942 157.912 203.902 158.115 204.118 158.1C210.72 157.632 217.349 157.967 223.88 159.099L223.839 159.012Z" fill="#263238"/>
<path d="M248.055 192.511C248.055 192.511 230.229 235.867 218.873 241.426C207.517 246.985 200.505 246.319 196.161 245.87C194.471 245.551 192.868 244.839 191.464 243.786C179.282 235.534 156.732 205.148 147.312 187.878C140.246 174.849 140.341 162.762 150.208 166.091C153.557 167.395 156.681 169.283 159.453 171.679C178.05 186.575 199.477 200.545 200.438 199.937C201.399 199.329 210.724 181.407 210.724 181.407L248.055 192.511Z" fill="#E3A74F"/>
<path d="M202.062 208.956C201.935 209.916 201.935 210.891 202.062 211.851C202.194 212.854 202.468 213.831 202.874 214.746C203.007 213.787 203.007 212.811 202.874 211.851C202.741 210.848 202.467 209.871 202.062 208.956Z" fill="white"/>
<path d="M225.328 219.741C225.202 220.701 225.202 221.676 225.328 222.636C225.452 223.603 225.698 224.548 226.059 225.444C226.193 224.485 226.193 223.509 226.059 222.549C225.946 221.579 225.7 220.633 225.328 219.741Z" fill="white"/>
<path d="M184.316 230.207C184.19 231.167 184.19 232.142 184.316 233.102C184.428 234.072 184.674 235.019 185.047 235.911C185.173 234.95 185.173 233.976 185.047 233.015C184.921 232.049 184.676 231.104 184.316 230.207Z" fill="white"/>
<path d="M173.095 187.618C172.866 189.585 173.128 191.583 173.853 193.408C173.979 192.448 173.979 191.473 173.853 190.513C173.728 189.515 173.473 188.54 173.095 187.618Z" fill="white"/>
<path d="M169.414 205.062C170.312 205.197 171.223 205.197 172.121 205.062C173.028 204.942 173.913 204.679 174.747 204.28C173.849 204.145 172.938 204.145 172.04 204.28C171.136 204.415 170.253 204.677 169.414 205.062Z" fill="white"/>
<path d="M216.896 210.114C217.794 210.249 218.706 210.249 219.604 210.114C220.508 209.981 221.391 209.718 222.229 209.332C221.332 209.189 220.42 209.189 219.522 209.332C218.616 209.453 217.731 209.716 216.896 210.114Z" fill="white"/>
<path d="M192.777 225.343C193.674 225.478 194.586 225.478 195.484 225.343C196.39 225.224 197.275 224.96 198.109 224.561C196.268 224.328 194.402 224.613 192.695 225.386L192.777 225.343Z" fill="white"/>
<path d="M238.648 195.16C239.546 195.295 240.457 195.295 241.355 195.16C242.262 195.041 243.147 194.777 243.981 194.378C242.139 194.145 240.273 194.43 238.566 195.203L238.648 195.16Z" fill="white"/>
<path d="M215.149 239.544C216.047 239.679 216.959 239.679 217.856 239.544C218.763 239.425 219.648 239.162 220.482 238.762C219.585 238.619 218.673 238.619 217.775 238.762C216.869 238.883 215.984 239.146 215.149 239.544Z" fill="white"/>
<path d="M145.362 167.524C144.616 167.877 143.828 168.121 143.021 168.248C143.135 167.97 143.281 167.708 143.454 167.466C144.09 167.399 144.731 167.419 145.362 167.524Z" fill="white"/>
<path d="M190.489 198.374C189.766 198.972 189.124 199.673 188.58 200.458C188.019 201.235 187.563 202.093 187.227 203.006C188.672 201.794 189.792 200.196 190.475 198.374H190.489Z" fill="white"/>
<path d="M212.808 222.607C212.082 223.207 211.44 223.913 210.899 224.706C210.341 225.48 209.886 226.332 209.546 227.239C210.271 226.645 210.914 225.943 211.454 225.155C212.015 224.378 212.471 223.52 212.808 222.607Z" fill="white"/>
<path d="M225.491 190.484C224.765 191.078 224.123 191.78 223.582 192.568C223.021 193.345 222.565 194.203 222.229 195.116C222.954 194.517 223.597 193.81 224.137 193.017C224.695 192.243 225.151 191.391 225.491 190.484Z" fill="white"/>
<path d="M176.398 219.581C175.675 220.185 175.033 220.891 174.489 221.68C173.931 222.454 173.476 223.307 173.136 224.214C173.861 223.619 174.504 222.917 175.044 222.129C175.61 221.356 176.066 220.497 176.398 219.581Z" fill="white"/>
<path d="M159.56 178.816C158.835 179.411 158.192 180.113 157.651 180.901C157.085 181.674 156.629 182.533 156.298 183.448C157.743 182.237 158.863 180.639 159.546 178.816H159.56Z" fill="white"/>
<path d="M158.519 198.822C157.958 198.046 157.297 197.359 156.556 196.781C155.836 196.179 155.038 195.691 154.188 195.333C154.736 196.116 155.393 196.804 156.137 197.375C156.86 197.979 157.663 198.467 158.519 198.822Z" fill="white"/>
<path d="M237.388 208.29C236.828 207.517 236.173 206.831 235.439 206.249C234.712 205.649 233.91 205.161 233.057 204.801C233.616 205.573 234.272 206.26 235.006 206.842C235.732 207.442 236.534 207.93 237.388 208.29Z" fill="white"/>
<path d="M213.119 200.487C212.56 199.715 211.904 199.028 211.17 198.446C210.447 197.841 209.644 197.353 208.788 196.998C209.921 198.544 211.415 199.742 213.119 200.473V200.487Z" fill="white"/>
<path d="M186.387 216.498C185.835 215.719 185.178 215.031 184.438 214.457C183.718 213.846 182.915 213.358 182.056 213.009C182.62 213.782 183.28 214.469 184.018 215.05C184.742 215.647 185.539 216.134 186.387 216.498Z" fill="white"/>
<path d="M202.467 240.369C201.911 239.594 201.255 238.906 200.518 238.328C199.792 237.728 198.99 237.241 198.136 236.881C198.696 237.657 199.357 238.344 200.098 238.922C200.822 239.519 201.619 240.006 202.467 240.369Z" fill="white"/>
<path d="M191.464 243.786C179.282 235.534 156.732 205.148 147.312 187.878C140.246 174.849 140.341 162.762 150.208 166.091C155.69 176.297 179.62 220.942 191.464 243.786Z" fill="#263238"/>
<path d="M243.48 200.487C242.126 199.778 229.322 195.29 226.52 194.378C223.718 193.466 212.321 189.644 209.357 188.964C209.345 188.959 209.331 188.957 209.318 188.958C209.305 188.958 209.292 188.962 209.28 188.968C209.268 188.974 209.258 188.982 209.249 188.993C209.24 189.003 209.233 189.016 209.229 189.029C209.224 189.042 209.222 189.056 209.223 189.07C209.223 189.085 209.227 189.098 209.232 189.111C209.238 189.124 209.246 189.135 209.256 189.145C209.266 189.154 209.277 189.162 209.289 189.166C212.078 190.426 223.569 194.334 226.412 195.319C229.254 196.303 241.991 200.444 243.439 200.69C243.588 200.704 243.601 200.53 243.48 200.487Z" fill="#263238"/>
<path d="M178.577 272.406C177.292 273.853 94.4962 276.749 94.0766 276.198C92.9261 274.751 103.118 218.38 111.591 196.81C122.42 169.16 128.646 166.612 132.354 164.962C137.078 162.82 145.727 163.225 147.825 164.137C150.208 165.15 160.603 177.383 163.77 187.299C170.131 207.248 179.701 271.088 178.577 272.406Z" fill="#E3A74F"/>
<path d="M142.114 180.785C141.896 182.754 142.162 184.75 142.885 186.575C143.013 185.615 143.013 184.64 142.885 183.68C142.768 182.679 142.508 181.702 142.114 180.785Z" fill="white"/>
<path d="M142.817 223.056C142.588 225.024 142.849 227.021 143.575 228.846C143.701 227.886 143.701 226.911 143.575 225.951C143.449 224.953 143.194 223.978 142.817 223.056Z" fill="white"/>
<path d="M95.7418 267.266C95.5278 269.236 95.7936 271.23 96.5133 273.057C96.6396 272.097 96.6396 271.122 96.5133 270.162C96.3938 269.161 96.1337 268.185 95.7418 267.266Z" fill="white"/>
<path d="M129.661 269.018C129.534 269.978 129.534 270.953 129.661 271.913C129.784 272.887 130.034 273.838 130.406 274.736C130.532 273.776 130.532 272.801 130.406 271.841C130.291 270.865 130.04 269.914 129.661 269.018Z" fill="white"/>
<path d="M157.585 249.49C157.459 250.45 157.459 251.424 157.585 252.385C157.696 253.355 157.943 254.301 158.316 255.193C158.443 254.233 158.443 253.258 158.316 252.298C158.196 251.33 157.95 250.384 157.585 249.49Z" fill="white"/>
<path d="M117.763 206.061C117.636 207.021 117.636 207.995 117.763 208.956C117.874 209.926 118.12 210.872 118.494 211.764C118.628 210.804 118.628 209.829 118.494 208.869C118.381 207.899 118.135 206.953 117.763 206.061Z" fill="white"/>
<path d="M113.757 243.294C113.631 244.254 113.631 245.229 113.757 246.189C113.881 247.156 114.127 248.101 114.488 248.997C114.719 247.029 114.458 245.031 113.73 243.207L113.757 243.294Z" fill="white"/>
<path d="M163.499 213.791C163.373 214.751 163.373 215.726 163.499 216.686C163.623 217.653 163.869 218.598 164.23 219.494C164.364 218.535 164.364 217.559 164.23 216.599C164.117 215.63 163.871 214.683 163.499 213.791Z" fill="white"/>
<path d="M134.101 198.663C134.999 198.799 135.91 198.799 136.808 198.663C137.719 198.544 138.609 198.28 139.447 197.881C137.606 197.629 135.735 197.914 134.033 198.706L134.101 198.663Z" fill="white"/>
<path d="M114.136 226.544C115.977 226.777 117.843 226.493 119.55 225.719C118.652 225.583 117.741 225.583 116.843 225.719C115.906 225.845 114.993 226.123 114.136 226.544Z" fill="white"/>
<path d="M145.741 242.353C146.639 242.488 147.55 242.488 148.448 242.353C149.354 242.227 150.238 241.963 151.074 241.571C150.176 241.436 149.265 241.436 148.367 241.571C147.463 241.704 146.58 241.967 145.741 242.353Z" fill="white"/>
<path d="M122.284 260.274C123.182 260.409 124.093 260.409 124.991 260.274C125.895 260.142 126.779 259.879 127.617 259.493C126.719 259.358 125.808 259.358 124.91 259.493C124.006 259.627 123.123 259.89 122.284 260.274Z" fill="white"/>
<path d="M168.534 259.782C169.432 259.917 170.343 259.917 171.241 259.782C172.148 259.663 173.033 259.4 173.867 259C172.97 258.857 172.057 258.857 171.16 259C170.253 259.121 169.369 259.384 168.534 259.782Z" fill="white"/>
<path d="M140.002 168.335C140.9 168.471 141.811 168.471 142.709 168.335C143.618 168.202 144.505 167.939 145.348 167.553C144.45 167.418 143.539 167.418 142.641 167.553C141.731 167.678 140.842 167.941 140.002 168.335Z" fill="white"/>
<path d="M131.678 175.791C130.945 176.387 130.298 177.094 129.756 177.89C129.195 178.661 128.739 179.514 128.402 180.423C129.131 179.832 129.774 179.13 130.311 178.338C130.876 177.562 131.336 176.704 131.678 175.791Z" fill="white"/>
<path d="M150.979 207.392C149.535 208.609 148.411 210.205 147.717 212.025C148.449 211.433 149.093 210.725 149.625 209.926C150.188 209.155 150.644 208.302 150.979 207.392Z" fill="white"/>
<path d="M170.158 239.125C169.436 239.728 168.794 240.434 168.25 241.224C167.689 242 167.233 242.858 166.896 243.771C167.622 243.172 168.265 242.465 168.805 241.672C169.371 240.899 169.827 240.04 170.158 239.125Z" fill="white"/>
<path d="M148.827 263.256C148.102 263.851 147.459 264.553 146.919 265.341C146.353 266.115 145.897 266.973 145.565 267.889C146.297 267.302 146.941 266.599 147.474 265.804C148.039 265.031 148.495 264.172 148.827 263.256Z" fill="white"/>
<path d="M104.661 255.729C103.932 256.324 103.289 257.032 102.753 257.828C102.19 258.598 101.734 259.451 101.399 260.361C102.131 259.774 102.775 259.071 103.308 258.277C103.873 257.503 104.329 256.644 104.661 255.729Z" fill="white"/>
<path d="M130.039 233.334C129.317 233.932 128.675 234.634 128.131 235.418C127.57 236.195 127.114 237.053 126.777 237.966C127.5 237.368 128.142 236.667 128.686 235.882C129.249 235.106 129.705 234.248 130.039 233.334Z" fill="white"/>
<path d="M159.56 178.816C158.835 179.411 158.192 180.113 157.651 180.901C157.085 181.674 156.629 182.533 156.298 183.448C157.743 182.237 158.863 180.639 159.546 178.816H159.56Z" fill="white"/>
<path d="M158.519 198.822C157.958 198.046 157.297 197.359 156.556 196.781C155.836 196.179 155.038 195.691 154.188 195.333C154.736 196.116 155.393 196.804 156.137 197.375C156.86 197.979 157.663 198.467 158.519 198.822Z" fill="white"/>
<path d="M104.147 233.073C103.333 232.736 102.568 232.278 101.873 231.713L102.035 230.916L102.184 231.032C102.925 231.61 103.586 232.297 104.147 233.073Z" fill="white"/>
<path d="M161.293 232.393C160.737 231.617 160.081 230.93 159.344 230.352C158.618 229.752 157.816 229.264 156.962 228.904C157.523 229.68 158.183 230.368 158.925 230.945C159.648 231.542 160.445 232.029 161.293 232.393Z" fill="white"/>
<path d="M164.46 273.622C163.896 272.849 163.235 272.162 162.497 271.58C161.774 270.975 160.972 270.487 160.115 270.133C160.68 270.906 161.34 271.592 162.078 272.174C162.804 272.774 163.606 273.261 164.46 273.622Z" fill="white"/>
<path d="M122.284 192.221C121.723 191.428 121.057 190.726 120.308 190.136C119.585 189.532 118.782 189.044 117.926 188.689C118.478 189.468 119.135 190.156 119.875 190.73C120.606 191.349 121.418 191.852 122.284 192.221Z" fill="white"/>
<path d="M138.947 252.385C138.386 251.609 137.725 250.921 136.984 250.344C136.26 249.747 135.463 249.26 134.615 248.896C135.167 249.671 135.819 250.358 136.551 250.937C137.281 251.538 138.088 252.026 138.947 252.385Z" fill="white"/>
<path d="M114.759 271.884C114.203 271.109 113.547 270.421 112.81 269.843C112.086 269.238 111.284 268.751 110.428 268.396C110.98 269.175 111.637 269.863 112.377 270.437C113.102 271.039 113.904 271.526 114.759 271.884Z" fill="white"/>
<path d="M133.992 215.369C133.433 214.596 132.777 213.91 132.043 213.328C131.32 212.722 130.518 212.234 129.661 211.88C130.221 212.652 130.876 213.339 131.61 213.921C132.337 214.521 133.139 215.009 133.992 215.369Z" fill="white"/>
<path d="M118.698 172.533C83.2491 201.602 52.727 241.745 55.7995 254.325C59.048 267.614 83.8718 282.293 105.691 285.116C110.157 285.695 123.666 250.546 119.077 248.925C115.504 247.709 99.2614 242.946 97.2988 240.587C95.9452 238.951 120.742 200.863 128.741 181.031C137.12 160.344 128.186 164.759 118.698 172.533Z" fill="#8C5B51"/>
<path d="M109.859 248.042C109.859 248.042 123.502 249.359 132.381 250.677C137.335 251.415 145.727 253.485 149.138 255.801C154.227 259.275 173.502 277.284 169.509 282.365C165.908 286.969 160.345 279.788 160.345 279.788C160.345 279.788 167.113 287.027 162.227 290.414C157.34 293.802 150.898 283.741 150.898 283.741C150.898 283.741 158.586 290.877 153.05 293.975C148.231 296.653 139.69 285.883 139.69 285.883C139.69 285.883 148.529 292.426 143.846 295.698C138.689 299.303 123.976 284.87 123.976 284.87C112.322 286.317 105.135 285.608 96.9053 283.219C95.3893 282.785 109.859 248.042 109.859 248.042Z" fill="#8C5B51"/>
<path d="M152.968 286.129C152.441 285.362 151.886 284.609 151.344 283.842C150.334 282.318 149.231 280.867 148.042 279.499C146.878 278.167 145.659 276.908 144.387 275.692C143.115 274.476 141.599 273.245 140.327 271.913C140.317 271.904 140.305 271.897 140.293 271.892C140.28 271.887 140.267 271.885 140.254 271.885C140.241 271.886 140.228 271.89 140.216 271.896C140.204 271.902 140.193 271.91 140.184 271.921C140.175 271.931 140.169 271.943 140.164 271.957C140.16 271.97 140.158 271.984 140.158 271.998C140.159 272.012 140.162 272.026 140.168 272.039C140.173 272.052 140.181 272.063 140.191 272.073C141.493 273.369 142.723 274.747 143.873 276.198C145.05 277.574 146.201 278.963 147.365 280.353C148.529 281.743 149.706 282.973 150.87 284.305C151.453 284.957 152.007 285.651 152.562 286.332C153.049 287.02 153.587 287.664 154.173 288.257C154.241 288.257 154.308 288.257 154.281 288.156C153.911 287.433 153.471 286.754 152.968 286.129Z" fill="#263238"/>
<path d="M161.726 281.337C159.921 278.462 157.931 275.724 155.771 273.144C153.573 270.582 151.143 268.259 148.516 266.21C148.506 266.2 148.495 266.193 148.482 266.188C148.47 266.183 148.457 266.181 148.443 266.182C148.43 266.182 148.417 266.186 148.405 266.192C148.393 266.198 148.383 266.206 148.374 266.217C148.365 266.227 148.358 266.24 148.354 266.253C148.349 266.266 148.347 266.28 148.348 266.294C148.348 266.308 148.352 266.322 148.357 266.335C148.363 266.348 148.371 266.359 148.381 266.369C150.573 268.931 152.807 271.465 155.026 274.012C156.109 275.243 160.887 281.048 161.469 281.584C161.605 281.67 161.794 281.453 161.726 281.337Z" fill="#263238"/>
<path d="M144.847 290.892C143.097 288.227 141.184 285.688 139.122 283.292C136.805 281.057 134.34 279.006 131.745 277.154C131.65 277.154 131.528 277.241 131.61 277.313C133.911 279.557 136.252 281.743 138.377 284.088C139.46 285.246 143.48 290.081 144.59 291.08C144.613 291.117 144.649 291.142 144.69 291.15C144.73 291.158 144.772 291.148 144.807 291.124C144.841 291.099 144.864 291.06 144.872 291.017C144.879 290.973 144.87 290.928 144.847 290.892Z" fill="#263238"/>
<path d="M120.565 247.521L101.48 286.534C101.48 286.534 58.4786 274.389 54.7699 253.557C51.0612 232.726 100.33 184.838 115.53 173.518C130.73 162.197 140.002 160.677 128.009 186.46C116.017 212.242 97.4603 238.763 98.9762 240.094C100.262 241.209 120.565 247.521 120.565 247.521Z" fill="#E3A74F"/>
<path d="M90.2998 219.089C90.1735 220.05 90.1735 221.024 90.2998 221.985C90.413 222.959 90.6593 223.91 91.0307 224.807C91.157 223.847 91.157 222.873 91.0307 221.912C90.9049 220.941 90.6591 219.991 90.2998 219.089Z" fill="white"/>
<path d="M95.7418 267.266C95.5278 269.236 95.7936 271.23 96.5133 273.057C96.6396 272.097 96.6396 271.122 96.5133 270.162C96.3938 269.161 96.1337 268.185 95.7418 267.266Z" fill="white"/>
<path d="M73.5439 243.786C73.4176 244.746 73.4176 245.721 73.5439 246.681C73.661 247.651 73.9119 248.598 74.2884 249.49C74.4214 248.53 74.4214 247.554 74.2884 246.594C74.1696 245.624 73.9188 244.678 73.5439 243.786Z" fill="white"/>
<path d="M117.818 206.22L117.736 206.364C117.73 206.268 117.73 206.171 117.736 206.075C117.77 206.119 117.797 206.168 117.818 206.22Z" fill="white"/>
<path d="M107.504 180.582C107.286 182.551 107.552 184.547 108.275 186.373C108.401 185.412 108.401 184.438 108.275 183.477C108.159 182.475 107.899 181.499 107.504 180.582Z" fill="white"/>
<path d="M114.515 249.026C114.154 248.13 113.908 247.185 113.784 246.218C113.784 245.928 113.757 245.639 113.703 245.349L114.393 245.566C114.393 245.74 114.461 245.928 114.488 246.102C114.626 247.071 114.635 248.055 114.515 249.026Z" fill="white"/>
<path d="M117.195 172.417C118.093 172.554 119.005 172.554 119.902 172.417C120.834 172.291 121.745 172.028 122.609 171.636C120.769 171.388 118.901 171.668 117.195 172.446V172.417Z" fill="white"/>
<path d="M72.4336 221.811C73.3315 221.946 74.2427 221.946 75.1407 221.811C76.0475 221.692 76.9326 221.428 77.7665 221.029C76.8686 220.894 75.9574 220.894 75.0594 221.029C74.1552 221.162 73.2719 221.425 72.4336 221.811Z" fill="white"/>
<path d="M91.3564 246.594C92.2543 246.731 93.1657 246.731 94.0635 246.594C94.9747 246.475 95.8642 246.212 96.7029 245.812C95.805 245.677 94.8938 245.677 93.9958 245.812C93.087 245.944 92.1991 246.207 91.3564 246.594Z" fill="white"/>
<path d="M80.1214 275.084C81.0192 275.22 81.9306 275.22 82.8284 275.084C83.7396 274.964 84.6291 274.701 85.4678 274.302C83.6267 274.069 81.7607 274.353 80.0537 275.127L80.1214 275.084Z" fill="white"/>
<path d="M59.5891 255.28C60.487 255.415 61.3982 255.415 62.2961 255.28C63.2029 255.161 64.088 254.897 64.9219 254.498C63.0808 254.265 61.2148 254.55 59.5078 255.323L59.5891 255.28Z" fill="white"/>
<path d="M99.3011 196.752C100.199 196.889 101.11 196.889 102.008 196.752C102.919 196.633 103.809 196.37 104.648 195.971C102.806 195.738 100.94 196.022 99.2334 196.796L99.3011 196.752Z" fill="white"/>
<path d="M131.678 175.791C130.945 176.387 130.298 177.094 129.756 177.89C129.195 178.661 128.739 179.514 128.402 180.423C129.131 179.832 129.774 179.13 130.311 178.338C130.876 177.562 131.336 176.704 131.678 175.791Z" fill="white"/>
<path d="M104.661 209.491C103.932 210.087 103.289 210.794 102.753 211.59C102.19 212.361 101.734 213.214 101.399 214.124C102.131 213.537 102.775 212.834 103.308 212.039C103.873 211.265 104.329 210.407 104.661 209.491Z" fill="white"/>
<path d="M104.661 255.729C103.932 256.324 103.289 257.032 102.753 257.828C102.19 258.598 101.734 259.451 101.399 260.361C102.131 259.774 102.775 259.071 103.308 258.277C103.873 257.503 104.329 256.644 104.661 255.729Z" fill="white"/>
<path d="M76.4944 261.968C75.0508 263.185 73.9269 264.781 73.2324 266.601C73.9646 266.009 74.6082 265.301 75.1409 264.501C75.704 263.731 76.1599 262.878 76.4944 261.968Z" fill="white"/>
<path d="M83.3704 232.393C82.6482 232.991 82.0061 233.693 81.4619 234.478C80.8987 235.253 80.4428 236.111 80.1084 237.025C80.8338 236.431 81.4764 235.729 82.0169 234.941C82.578 234.164 83.0337 233.306 83.3704 232.393Z" fill="white"/>
<path d="M103.024 280.063C101.587 281.283 100.468 282.879 99.7754 284.696C101.22 283.484 102.341 281.886 103.024 280.063Z" fill="white"/>
<path d="M102.942 231.698L102.631 232.248C102.333 232.06 102.049 231.843 101.765 231.626C101.028 231.048 100.371 230.36 99.8154 229.585C100.664 229.948 101.461 230.435 102.184 231.032C102.441 231.249 102.712 231.467 102.942 231.698Z" fill="white"/>
<path d="M65.7336 238.762C65.1741 237.99 64.5183 237.303 63.7845 236.721C63.0582 236.121 62.2562 235.634 61.4023 235.274C61.9583 236.049 62.6145 236.737 63.3514 237.315C64.0778 237.915 64.8798 238.402 65.7336 238.762Z" fill="white"/>
<path d="M89.177 260.607C88.6211 259.832 87.9648 259.144 87.2279 258.566C86.5016 257.966 85.6996 257.479 84.8457 257.119C85.4064 257.895 86.0672 258.582 86.8083 259.16C87.5318 259.757 88.3289 260.244 89.177 260.607Z" fill="white"/>
<path d="M122.284 192.221C121.723 191.428 121.057 190.726 120.308 190.136C119.585 189.532 118.782 189.044 117.926 188.689C118.478 189.468 119.135 190.156 119.875 190.73C120.606 191.349 121.418 191.852 122.284 192.221Z" fill="white"/>
<path d="M90.1653 208.29C89.025 206.753 87.5331 205.556 85.834 204.816C86.3899 205.591 87.0462 206.279 87.7831 206.857C88.5103 207.452 89.3122 207.934 90.1653 208.29Z" fill="white"/>
<path d="M95.3902 281.12C96.2971 279.832 102.889 267.281 104.269 264.516C105.65 261.751 111.389 250.532 112.58 247.564C112.586 247.54 112.584 247.515 112.575 247.492C112.567 247.469 112.551 247.45 112.532 247.437C112.512 247.424 112.489 247.418 112.466 247.42C112.443 247.422 112.422 247.432 112.404 247.448C110.712 250.126 104.892 261.432 103.43 264.212C101.968 266.991 95.7151 279.557 95.2008 281.033C95.1602 281.164 95.3226 281.207 95.3902 281.12Z" fill="#263238"/>
<path d="M120.796 247.39L119.903 248.983C120.024 248.809 120.512 247.622 120.512 247.622C114.692 246.174 108.898 244.625 103.173 242.729C102.456 242.483 101.738 242.237 101.021 241.947C100.251 241.67 99.5153 241.296 98.8282 240.833C98.7701 240.784 98.7158 240.731 98.6658 240.673C98.5805 240.565 98.512 240.443 98.4627 240.311C98.4122 240.088 98.4122 239.855 98.4627 239.631C98.5304 239.428 98.6116 239.197 98.6928 239.009C98.774 238.82 99.0177 238.256 99.1801 237.894C99.5185 237.17 99.884 236.446 100.236 235.751C101.671 232.856 103.159 230.135 104.689 227.37C107.789 221.869 110.875 216.368 114.082 210.968C117.114 205.843 120.268 200.053 123.449 195.044C123.638 194.74 124.126 194.465 123.544 195.565C120.62 201.167 117.981 206.003 114.962 211.489L105.839 228.05C104.324 230.815 102.781 233.551 101.332 236.345C100.967 237.04 100.601 237.793 100.263 238.444C100.087 238.791 99.9381 239.139 99.7756 239.486L99.6403 239.877L99.5456 239.805C99.5536 239.838 99.5536 239.873 99.5456 239.906C99.5456 239.906 99.5456 240.036 99.5456 239.993V239.892C100.11 240.234 100.698 240.529 101.305 240.775L103.39 241.6C106.191 242.686 109.047 243.656 111.917 244.596L120.796 247.39Z" fill="#263238"/>
<path d="M99.6396 239.891V239.992C99.6396 239.992 99.6396 239.92 99.6396 239.906C99.6477 239.873 99.6477 239.838 99.6396 239.805V239.891Z" fill="#263238"/>
<path d="M122.65 202.297C123.056 201.964 123.015 202.297 122.826 202.485C121.784 203.932 120.186 205.452 119.022 206.726C117.658 208.241 116.202 209.658 114.664 210.968C115.864 209.299 117.162 207.713 118.549 206.22C119.828 204.811 121.199 203.5 122.65 202.297Z" fill="#263238"/>
<path d="M146.025 179.482C141.369 180.93 132.977 173.691 129.526 167.568C129.282 167.148 129.702 162.617 129.959 157.087C130.108 153.743 130.202 149.994 130.053 146.577C130.053 145.882 150.356 150.79 150.356 150.79C149.4 155.124 148.945 159.568 149.003 164.021C149.026 164.509 149.089 164.993 149.192 165.469C149.192 165.469 149.192 165.614 149.192 165.701C149.734 168.292 150.519 178.107 146.025 179.482Z" fill="#8C5B51"/>
<path d="M131.299 146.606C132.476 152.397 136.456 166.135 147.162 165.86C147.848 165.851 148.532 165.779 149.206 165.642C149.215 165.566 149.215 165.488 149.206 165.411C149.106 164.934 149.039 164.45 149.003 163.963C148.95 159.51 149.404 155.067 150.357 150.732C150.357 150.732 135.684 147.243 131.299 146.606Z" fill="#263238"/>
<path d="M155.054 112.384C155.054 112.384 161.578 115.279 162.782 122.344C163.987 129.408 162.485 136.82 161.916 137.211C161.348 137.602 155.054 112.384 155.054 112.384Z" fill="#263238"/>
<path d="M127.617 121.33C125.722 129.017 130.324 150.833 135.481 155.524C143.074 162.327 155.093 162.516 160.399 152.86C165.543 143.508 159.168 115.221 153.361 110.965C144.807 104.726 130.419 109.967 127.617 121.33Z" fill="#8C5B51"/>
<path d="M148.503 135.691C148.503 135.691 148.408 135.792 148.421 135.85C148.773 137.298 148.936 139.049 147.785 139.817C147.785 139.817 147.785 139.918 147.785 139.903C149.288 139.324 149.044 137.023 148.503 135.691Z" fill="#263238"/>
<path d="M146.959 134.446C144.712 134.779 145.511 139.571 147.595 139.252C149.68 138.934 148.854 134.171 146.959 134.446Z" fill="#263238"/>
<path d="M156.271 134.272C156.271 134.272 156.393 134.272 156.393 134.388C156.596 135.836 157.07 137.544 158.396 137.804V137.891C156.853 138.022 156.231 135.72 156.271 134.272Z" fill="#263238"/>
<path d="M157.246 132.492C159.453 131.884 160.414 136.632 158.383 137.196C156.353 137.761 155.405 132.998 157.246 132.492Z" fill="#263238"/>
<path d="M144.28 131.044C144.878 130.864 145.465 130.646 146.039 130.393C146.692 130.254 147.282 129.888 147.718 129.35C147.821 129.153 147.862 128.926 147.835 128.702C147.808 128.478 147.715 128.269 147.569 128.105C147.226 127.834 146.822 127.667 146.398 127.621C145.974 127.575 145.546 127.652 145.159 127.845C144.323 128.093 143.604 128.666 143.143 129.452C143.049 129.638 143.008 129.849 143.024 130.06C143.04 130.27 143.112 130.472 143.232 130.64C143.352 130.808 143.514 130.935 143.7 131.007C143.886 131.078 144.087 131.091 144.28 131.044Z" fill="#263238"/>
<path d="M158.721 128.612C158.101 128.595 157.482 128.542 156.867 128.453C156.205 128.495 155.548 128.302 154.999 127.903C154.849 127.742 154.753 127.533 154.727 127.307C154.7 127.082 154.743 126.854 154.85 126.658C155.117 126.304 155.467 126.033 155.864 125.873C156.262 125.712 156.692 125.668 157.111 125.746C157.98 125.769 158.813 126.129 159.452 126.759C159.589 126.914 159.68 127.109 159.715 127.318C159.75 127.528 159.727 127.744 159.65 127.94C159.573 128.136 159.444 128.304 159.279 128.423C159.114 128.543 158.92 128.608 158.721 128.612Z" fill="#263238"/>
<path d="M148.462 149.907C148.826 150.289 149.306 150.52 149.815 150.558C150.328 150.442 150.815 150.221 151.25 149.907C151.25 149.907 151.345 149.907 151.318 149.907C151.169 150.236 150.939 150.517 150.653 150.718C150.367 150.92 150.035 151.034 149.693 151.05C149.389 151.034 149.096 150.918 148.854 150.719C148.612 150.52 148.433 150.247 148.34 149.936C148.34 149.936 148.408 149.863 148.462 149.907Z" fill="#263238"/>
<path d="M149.192 145.26C149.639 145.782 150.183 146.198 150.789 146.483C151.395 146.767 152.05 146.912 152.711 146.91C153.287 146.92 153.861 146.842 154.417 146.679L154.742 146.577L155.039 146.476C155.109 146.443 155.167 146.388 155.206 146.318C155.245 146.247 155.262 146.166 155.256 146.085C155.26 146.037 155.26 145.988 155.256 145.94V145.81C155.107 144.666 154.715 142.915 154.715 142.915C155.134 143.059 157.286 143.639 157.151 143.045C156.179 137.9 154.718 132.875 152.793 128.048C152.775 128.023 152.752 128.005 152.725 127.996C152.697 127.987 152.668 127.987 152.641 127.997C152.614 128.007 152.591 128.025 152.574 128.05C152.558 128.074 152.549 128.104 152.549 128.134C153.429 132.868 155.066 137.414 156.027 142.162C155.26 141.94 154.467 141.838 153.672 141.858C153.537 141.93 154.484 145.159 154.511 145.68C153.654 145.939 152.756 146.009 151.872 145.887C150.988 145.766 150.136 145.454 149.368 144.97C149.179 144.97 149.084 145.086 149.192 145.26Z" fill="#263238"/>
<path d="M153.7 146.143C153.25 147.071 152.583 147.859 151.764 148.43C151.308 148.722 150.779 148.859 150.248 148.821C149.098 148.72 148.895 147.634 148.895 146.664C148.927 146.149 149.013 145.639 149.152 145.144C150.527 145.994 152.123 146.344 153.7 146.143Z" fill="#263238"/>
<path d="M151.764 148.43C151.308 148.723 150.779 148.859 150.248 148.821C149.098 148.72 148.895 147.634 148.895 146.664C149.488 146.577 150.092 146.704 150.611 147.023C151.13 147.343 151.536 147.838 151.764 148.43Z" fill="#FF98B9"/>
<path d="M130.297 142.017C132.707 142.365 134.196 134.533 134.493 131.58C134.764 128.974 134.29 120.925 134.317 120.375C134.344 119.825 145.376 125.586 150.857 122.764C156.339 119.941 159.331 113.716 158.979 111.183C158.627 108.649 150.478 103.307 144.225 104.075C137.972 104.842 130.92 114.744 130.92 114.744C131.735 113.356 132.45 111.904 133.059 110.401C132.91 110.111 129.174 112.543 128.917 115.714C128.917 115.714 129.106 111.747 128.795 111.733C128.484 111.718 125.885 115.554 126.968 117.9C126.968 117.9 123.895 121.881 124.139 125.586C124.382 129.292 127.482 141.612 130.297 142.017Z" fill="#263238"/>
<path d="M154.741 120.737C153.195 122.034 151.469 123.065 149.625 123.792C147.534 124.363 145.341 124.363 143.25 123.792C141.141 123.327 139.119 122.49 137.267 121.316C135.616 120.303 134.1 119 132.395 118.146C131.962 117.929 131.61 118.609 131.907 118.942C135.08 122.355 139.194 124.588 143.642 125.312C145.71 125.65 147.823 125.407 149.776 124.607C151.729 123.808 153.454 122.479 154.782 120.751C154.782 120.751 154.769 120.723 154.741 120.737Z" fill="#263238"/>
<path d="M132.639 139.049C132.639 139.049 127.617 132.246 124.707 134.2C121.797 136.154 125.844 146.23 129.445 147.417C129.899 147.602 130.384 147.687 130.869 147.667C131.355 147.647 131.832 147.523 132.272 147.301C132.712 147.08 133.105 146.765 133.429 146.377C133.752 145.989 133.999 145.535 134.155 145.043L132.639 139.049Z" fill="#8C5B51"/>
<path d="M125.926 137.052C125.926 137.052 125.926 137.139 125.926 137.153C128.47 138.079 129.905 140.454 130.961 142.944C130.802 142.687 130.593 142.47 130.348 142.309C130.103 142.147 129.828 142.044 129.543 142.007C129.257 141.97 128.967 141.999 128.693 142.094C128.42 142.188 128.168 142.344 127.956 142.553C127.956 142.553 127.956 142.712 128.037 142.683C128.465 142.509 128.933 142.481 129.377 142.603C129.82 142.725 130.217 142.991 130.514 143.363C131.006 143.988 131.432 144.667 131.787 145.39C131.922 145.622 132.314 145.477 132.22 145.202C132.057 141.756 129.337 137.182 125.926 137.052Z" fill="#263238"/>
<path d="M127.076 169.175C129.294 172.065 131.662 174.82 134.168 177.426C136.468 179.978 139.479 181.664 142.75 182.232C145.931 182.536 149.111 181.841 150.275 177.687C151.101 174.111 151.179 170.384 150.506 166.772C150.499 166.752 150.497 166.731 150.5 166.71C150.503 166.69 150.51 166.67 150.521 166.653C150.533 166.636 150.547 166.623 150.565 166.613C150.582 166.603 150.601 166.599 150.621 166.599C150.64 166.599 150.659 166.603 150.676 166.613C150.694 166.623 150.709 166.636 150.72 166.653C150.731 166.67 150.738 166.69 150.741 166.71C150.744 166.731 150.742 166.752 150.736 166.772C151.467 172.2 152.225 180.625 147.609 182.507C142.439 184.621 137.363 181.769 133.722 177.947C131.173 175.328 128.903 172.415 126.954 169.262C126.995 169.189 127.076 169.117 127.076 169.175Z" fill="#263238"/>
<path d="M250.864 1.64591C261.008 -0.0870374 271.435 1.69114 280.446 6.69052C289.457 11.6899 296.521 19.6156 300.485 29.1755C304.449 38.7354 305.081 49.3656 302.276 59.3329C299.471 69.3003 293.395 78.017 285.04 84.0618" stroke="#E3A74F" stroke-linecap="round" stroke-linejoin="round"/>
<path d="M231.879 9.62972C236.104 6.56267 240.821 4.24892 245.824 2.78931" stroke="#E3A74F" stroke-linecap="round" stroke-linejoin="round"/>
<path d="M236.451 86.9003C230.313 83.4764 225.045 78.6695 221.058 72.8555C217.072 67.0415 214.474 60.3778 213.469 53.3853C212.464 46.3929 213.079 39.2611 215.265 32.5475C217.451 25.8339 221.15 19.7204 226.072 14.6848" stroke="#E3A74F" stroke-linecap="round" stroke-linejoin="round"/>
<path d="M234.269 101.363L231.55 103.781L235.783 89.2072" stroke="#E3A74F" stroke-linecap="round" stroke-linejoin="round"/>
<path d="M266.134 92.0156C259.438 93.1776 252.567 92.8039 246.033 90.9224L237.457 98.5451" stroke="#E3A74F" stroke-linecap="round" stroke-linejoin="round"/>
<path d="M276.573 88.8962C274.876 89.6306 273.136 90.2603 271.363 90.7819" stroke="#E3A74F" stroke-linecap="round" stroke-linejoin="round"/>
<path d="M262.589 24.5342C268.231 25.5053 273.307 28.5678 276.819 33.1189C280.331 37.67 282.024 43.3799 281.564 49.1248C281.105 54.8697 278.527 60.2333 274.337 64.1599C270.147 68.0865 264.649 70.2916 258.925 70.3412C253.202 70.3907 247.667 68.2812 243.411 64.4277C239.154 60.5742 236.485 55.256 235.927 49.52C235.37 43.7839 236.965 38.0455 240.399 33.4342C243.832 28.823 248.856 25.673 254.48 24.6044" stroke="#E3A74F" stroke-linecap="round" stroke-linejoin="round"/>
<path d="M254.49 72.4572C247.855 71.3191 241.942 67.5743 238.049 62.0463C234.156 56.5184 232.603 49.66 233.731 42.9792" stroke="#E3A74F" stroke-linecap="round" stroke-linejoin="round"/>
<path d="M282.619 55.9078C281.057 60.2579 278.352 64.1 274.793 67.0249C271.234 69.9497 266.954 71.848 262.408 72.5174" stroke="#E3A74F" stroke-linecap="round" stroke-linejoin="round"/>
<path d="M235.684 36.6102C238.256 30.9818 242.771 26.4861 248.389 23.9594C254.008 21.4328 260.346 21.0473 266.225 22.8747C272.105 24.7021 277.125 28.618 280.351 33.8937C283.577 39.1695 284.79 45.4457 283.765 51.5548" stroke="#E3A74F" stroke-linecap="round" stroke-linejoin="round"/>
<path d="M273.974 38.0646L274.272 37.7437" stroke="#E3A74F" stroke-width="2" stroke-linecap="round" stroke-linejoin="round"/>
<path d="M269.909 42.4777L271.941 40.2811" stroke="#E3A74F" stroke-width="2" stroke-linecap="round" stroke-linejoin="round"/>
<path d="M245.107 45.7073L254.879 58.7864L268.137 44.4034" stroke="#E3A74F" stroke-width="2" stroke-linecap="round" stroke-linejoin="round"/>
</svg>
