<svg width="240" height="82" viewBox="0 0 240 82" fill="none" xmlns="http://www.w3.org/2000/svg">
<path d="M75.9077 70.1035H70.3463V57.5904C70.3463 55.6837 69.8696 54.3198 68.9163 53.4988C67.9629 52.6514 66.5858 52.2277 64.785 52.2277H59.6208V70.1035H54.0594V49.447H64.785C68.572 49.447 71.3659 50.1355 73.1667 51.5126C74.9941 52.8632 75.9077 54.8892 75.9077 57.5904V70.1035ZM87.8079 63.549C87.8079 66.0649 89.3306 67.3228 92.3762 67.3228H97.9375V59.7752H92.3762C89.3306 59.7752 87.8079 61.0332 87.8079 63.549ZM97.9375 56.9946C97.9375 55.0878 97.4344 53.6842 96.428 52.7838C95.4482 51.8834 94.1637 51.4332 92.5748 51.4332C91.3831 51.4332 90.2178 51.6185 89.0791 51.9893C87.9403 52.3336 86.9207 52.8103 86.0203 53.4194L84.63 51.0359C85.2126 50.6387 85.8482 50.2944 86.5367 50.0031C87.2517 49.7118 87.98 49.4734 88.7215 49.2881C89.4631 49.0762 90.1913 48.9173 90.9064 48.8114C91.6479 48.7054 92.3364 48.6525 92.972 48.6525C94.6669 48.6525 96.1632 48.8511 97.4608 49.2483C98.7585 49.6456 99.8575 50.215 100.758 50.9565C101.658 51.698 102.334 52.5852 102.784 53.618C103.261 54.6243 103.499 55.7499 103.499 56.9946V70.1035H92.3762C88.7745 70.1035 86.113 69.5606 84.3916 68.4748C82.6967 67.389 81.8493 65.7471 81.8493 63.549C81.8493 61.351 82.6967 59.709 84.3916 58.6232C86.113 57.5374 88.7745 56.9946 92.3762 56.9946H97.9375ZM126.52 52.2277H121.753C119.953 52.2277 118.575 52.7176 117.622 53.6974C116.669 54.6508 116.192 56.0809 116.192 57.9877V70.1035H110.631V57.9877C110.631 55.2864 111.478 53.1943 113.173 51.7112C114.894 50.2017 117.357 49.447 120.562 49.447H126.52V52.2277ZM142.384 68.1173C143.681 68.1173 144.886 67.8922 145.998 67.442C147.137 66.9918 148.25 66.3562 149.335 65.5352L150.924 67.9187C150.421 68.3689 149.825 68.7794 149.137 69.1501C148.475 69.5209 147.746 69.8387 146.952 70.1035C146.184 70.3419 145.376 70.5272 144.529 70.6597C143.681 70.8186 142.834 70.898 141.986 70.898C140.106 70.898 138.385 70.6464 136.822 70.1432C135.286 69.6666 133.975 68.9648 132.89 68.0379C131.804 67.0845 130.956 65.9192 130.347 64.5421C129.765 63.165 129.473 61.5761 129.473 59.7752C129.473 58.0009 129.751 56.4252 130.307 55.0481C130.89 53.6445 131.685 52.4792 132.691 51.5523C133.724 50.599 134.942 49.8839 136.346 49.4072C137.749 48.9041 139.298 48.6525 140.993 48.6525C142.582 48.6525 144.078 48.8908 145.482 49.3675C146.886 49.8442 148.104 50.546 149.137 51.4729C150.17 52.3733 150.99 53.4723 151.6 54.77C152.209 56.0677 152.513 57.5374 152.513 59.1794V61.9601H135.551C135.869 64.1581 136.624 65.7339 137.815 66.6872C139.034 67.6406 140.556 68.1173 142.384 68.1173ZM140.993 51.2345C140.225 51.2345 139.51 51.3802 138.848 51.6715C138.186 51.9628 137.603 52.4263 137.1 53.0619C136.624 53.6974 136.226 54.5184 135.909 55.5248C135.617 56.5311 135.458 57.7493 135.432 59.1794H146.555C146.555 57.8023 146.396 56.6105 146.078 55.6042C145.76 54.5979 145.336 53.7769 144.807 53.1413C144.304 52.4792 143.708 52.0025 143.019 51.7112C142.357 51.3934 141.682 51.2345 140.993 51.2345ZM146.555 41.1049L142.344 47.0635H138.57L140.954 41.1049H146.555ZM170.187 52.2277C168.281 52.2277 166.771 52.8235 165.659 54.0152C164.573 55.1805 164.03 56.9681 164.03 59.378C164.03 61.7879 164.573 63.5888 165.659 64.7805C166.771 65.9457 168.281 66.5283 170.187 66.5283H175.153V52.2277H170.187ZM180.714 69.7063C180.714 70.951 180.476 72.0765 179.999 73.0828C179.523 74.1157 178.808 75.0028 177.854 75.7443C176.927 76.4859 175.749 77.0552 174.319 77.4525C172.915 77.8497 171.273 78.0483 169.393 78.0483C168.757 78.0483 168.069 77.9954 167.327 77.8894C166.612 77.81 165.884 77.6643 165.142 77.4525C164.401 77.2671 163.673 77.0155 162.958 76.6977C162.269 76.4064 161.633 76.0621 161.051 75.6649L162.441 73.2814C163.342 73.8906 164.361 74.3672 165.5 74.7115C166.639 75.0823 167.804 75.2677 168.996 75.2677C170.982 75.2677 172.505 74.8174 173.564 73.917C174.623 73.0166 175.153 71.613 175.153 69.7063V69.309H170.187C168.36 69.309 166.692 69.0707 165.182 68.594C163.699 68.1173 162.428 67.442 161.369 66.5681C160.309 65.6941 159.488 64.6481 158.906 63.4299C158.35 62.2117 158.071 60.861 158.071 59.378C158.071 57.895 158.35 56.5443 158.906 55.3261C159.488 54.1079 160.309 53.0619 161.369 52.1879C162.428 51.314 163.699 50.6387 165.182 50.162C166.692 49.6853 168.36 49.447 170.187 49.447H180.714V69.7063ZM188.245 49.447H193.806V61.9601C193.806 63.8668 194.283 65.2439 195.236 66.0914C196.19 66.9123 197.567 67.3228 199.368 67.3228H204.532V49.447H210.093V70.1035H199.368C195.58 70.1035 192.773 69.4282 190.946 68.0776C189.145 66.7005 188.245 64.6613 188.245 61.9601V49.447ZM222.226 63.549C222.226 66.0649 223.749 67.3228 226.794 67.3228H232.356V59.7752H226.794C223.749 59.7752 222.226 61.0332 222.226 63.549ZM232.356 56.9946C232.356 55.0878 231.852 53.6842 230.846 52.7838C229.866 51.8834 228.582 51.4332 226.993 51.4332C225.801 51.4332 224.636 51.6185 223.497 51.9893C222.358 52.3336 221.339 52.8103 220.438 53.4194L219.048 51.0359C219.631 50.6387 220.266 50.2944 220.955 50.0031C221.67 49.7118 222.398 49.4734 223.14 49.2881C223.881 49.0762 224.609 48.9173 225.324 48.8114C226.066 48.7054 226.755 48.6525 227.39 48.6525C229.085 48.6525 230.581 48.8511 231.879 49.2483C233.177 49.6456 234.276 50.215 235.176 50.9565C236.076 51.698 236.752 52.5852 237.202 53.618C237.679 54.6243 237.917 55.7499 237.917 56.9946V70.1035H226.794C223.193 70.1035 220.531 69.5606 218.81 68.4748C217.115 67.389 216.267 65.7471 216.267 63.549C216.267 61.351 217.115 59.709 218.81 58.6232C220.531 57.5374 223.193 56.9946 226.794 56.9946H232.356Z" fill="#E3A74F"/>
<path fill-rule="evenodd" clip-rule="evenodd" d="M77.2412 40.689C76.4719 40.5964 75.6888 40.5488 74.8945 40.5488H58.3428C47.6018 40.5488 38.8945 49.2561 38.8945 59.9971C38.8945 68.8738 44.8416 76.3615 52.9687 78.6933C48.5329 80.5697 43.6909 81.6019 38.6207 81.6019C17.2911 81.6019 0 63.3343 0 40.8C0 18.2657 17.2911 -0.00195312 38.6207 -0.00195312C59.9153 -0.00195312 77.1846 18.2057 77.2412 40.689Z" fill="#E3A74F"/>
<path d="M52.8563 17.1222C46.0017 27.2027 33.5284 37.1301 16.387 46.7941C17.2094 44.8682 17.859 43.3919 18.2966 42.7522C19.811 40.5253 22.8915 34.2189 22.8915 34.2189C22.8915 34.2189 24.5144 35.4222 24.7352 34.8672C24.9519 34.3104 34.1353 11.0313 34.1353 11.0313C34.1353 11.0313 29.8055 5.8846 28.2572 9.65787C27.2366 12.15 18.1175 34.3839 12.0483 49.1801C10.8774 49.806 9.6921 50.4372 8.48273 51.0632C7.12482 51.6979 7.82667 53.2834 9.95301 54.2857C7.95197 59.169 6.62129 62.4137 6.62129 62.4137C6.62129 62.4137 6.5803 64.0369 7.68047 63.6195C9.54507 61.2522 11.2787 58.069 12.8029 54.886C24.3208 53.8117 54.9358 27.3367 56.5034 24.8935C58.1176 22.3843 53.2048 14.6216 52.8563 17.1222ZM14.5842 52.0742C14.2245 52.4334 13.6584 52.4113 13.3235 52.0315C12.9863 51.6483 13.0055 51.0462 13.3645 50.6869C13.7242 50.3279 14.2887 50.3483 14.626 50.7316C14.9609 51.1129 14.9433 51.7167 14.5842 52.0742Z" fill="#082031"/>
</svg>
